<svg width="164" height="40" viewBox="0 0 164 40" fill="none" xmlns="http://www.w3.org/2000/svg">
<rect width="164" height="40" fill="white"/>
<path d="M18.4138 22.064H20.8138L21.4858 18.584H18.7018L19.1338 16.472H21.9178L22.8538 11.648H25.0858L24.1498 16.472H27.8218L28.7578 11.648H31.0138L30.0778 16.472H32.5498L32.1418 18.584H29.6458L28.9738 22.064H31.6618L31.2538 24.176H28.5418L27.6058 29H25.3738L26.3098 24.176H22.6138L21.6778 29H19.4458L20.3818 24.176H17.9818L18.4138 22.064ZM23.0458 22.064H26.7178L27.4138 18.584H23.7178L23.0458 22.064ZM38.0047 11.648V29H35.6527V11.648H38.0047ZM45.5552 29L40.3952 11.648H42.8432L46.0112 22.256C46.2512 23.168 46.4912 24.08 46.7312 25.4C47.0192 24.008 47.2832 23.168 47.5472 22.256L50.8352 11.648H53.3792L56.6432 22.256C56.9312 23.192 57.1712 24.104 57.4352 25.4C57.7232 23.936 57.9632 23.048 58.2032 22.28L61.3952 11.648H63.7952L58.5632 29H56.3072L52.1072 15.272L47.8592 29H45.5552ZM71.9043 29H66.1683V11.648H71.8083C76.9923 11.648 80.4963 15.152 80.4963 20.336C80.4963 25.496 77.0403 29 71.9043 29ZM71.6403 13.808H68.5203V26.816H71.7363C75.6003 26.816 78.0483 24.32 78.0483 20.336C78.0483 16.304 75.6003 13.808 71.6403 13.808ZM94.2887 28.976L82.5767 29V27.2L88.1687 22.376C90.9767 19.952 91.7687 18.776 91.7687 16.928C91.7687 14.744 90.5207 13.448 88.4327 13.448C86.2967 13.448 84.9047 15.008 84.8567 17.48H82.5047C82.5767 13.76 84.9287 11.336 88.4567 11.336C91.9367 11.336 94.1687 13.448 94.1687 16.784C94.1687 19.256 92.9447 21.008 89.8727 23.672L86.2727 26.792H94.2887V28.976ZM96.4533 20.336C96.4533 14.96 99.2373 11.312 103.605 11.312C107.949 11.312 110.733 14.96 110.733 20.336C110.733 25.736 108.069 29.312 103.605 29.312C99.1173 29.312 96.4533 25.736 96.4533 20.336ZM98.7813 20.336C98.7813 24.608 100.557 27.2 103.605 27.2C106.653 27.2 108.405 24.608 108.405 20.336C108.405 16.016 106.653 13.424 103.605 13.424C100.557 13.424 98.7813 16.016 98.7813 20.336ZM124.734 28.976L113.022 29V27.2L118.614 22.376C121.422 19.952 122.214 18.776 122.214 16.928C122.214 14.744 120.966 13.448 118.878 13.448C116.742 13.448 115.35 15.008 115.302 17.48H112.95C113.022 13.76 115.374 11.336 118.902 11.336C122.382 11.336 124.614 13.448 124.614 16.784C124.614 19.256 123.39 21.008 120.318 23.672L116.718 26.792H124.734V28.976ZM139.366 25.496H137.302V29H135.046V25.496H126.07V23.408L134.254 11.648H137.302V23.408H139.366V25.496ZM128.614 23.408H135.046V14.144L128.614 23.408Z" fill="black"/>
</svg>
