<svg width="186" height="24" viewBox="0 0 186 24" fill="none" xmlns="http://www.w3.org/2000/svg">
<path d="M5.216 12.672C5.216 10.752 6.656 9.456 9.248 9.264L12.632 9V8.688C12.632 7.08 11.768 6.264 10.088 6.264C8.36 6.264 7.376 7.008 7.376 8.304H5.552C5.552 6.072 7.376 4.608 10.16 4.608C13.016 4.608 14.672 6.168 14.672 8.904V13.08C14.672 14.016 15.128 14.472 16.04 14.472C17.504 14.472 18.512 12.648 18.512 9.96C18.512 5.208 15.032 1.824 10.136 1.824C5.336 1.824 1.664 5.544 1.664 10.392C1.664 15.312 5.312 19.032 10.136 19.032C12.032 19.032 13.856 18.408 15.368 17.256L16.136 18.552C14.432 19.848 12.368 20.52 10.136 20.52C4.4 20.52 0.0560001 16.176 0.0560001 10.392C0.0560001 4.68 4.424 0.335999 10.136 0.335999C15.944 0.335999 20.12 4.368 20.12 9.96C20.12 13.488 18.368 15.912 15.8 15.912C14.144 15.912 13.112 15.168 12.872 13.8C12.296 15.096 10.784 15.912 8.984 15.912C6.656 15.912 5.216 14.664 5.216 12.672ZM7.304 12.6C7.304 13.704 8.072 14.28 9.488 14.28C11.456 14.28 12.656 13.056 12.656 11.016V10.464L9.896 10.704C8.12 10.848 7.304 11.472 7.304 12.6ZM22.0599 11.832C22.0599 8.52 24.1959 5.928 27.6039 5.928C29.4999 5.928 30.9639 6.792 31.7079 8.256L31.8759 6.264H33.8919V17.52C33.8919 21.216 31.6119 23.568 28.0119 23.568C24.8199 23.568 22.6359 21.768 22.2039 18.792H24.4599C24.7479 20.52 26.0439 21.528 28.0119 21.528C30.2199 21.528 31.6599 20.088 31.6599 17.856V15.504C30.8919 16.872 29.3559 17.688 27.5079 17.688C24.1719 17.688 22.0599 15.12 22.0599 11.832ZM24.3159 11.784C24.3159 13.992 25.6839 15.72 27.8919 15.72C30.1719 15.72 31.5639 14.088 31.5639 11.784C31.5639 9.528 30.2199 7.896 27.9159 7.896C25.6599 7.896 24.3159 9.624 24.3159 11.784ZM45.2596 6.264H47.4916V18H45.4756L45.2356 16.224C44.5636 17.448 43.0036 18.288 41.2756 18.288C38.5396 18.288 37.0036 16.44 37.0036 13.56V6.264H39.2596V12.816C39.2596 15.336 40.3396 16.296 42.0676 16.296C44.1316 16.296 45.2596 14.976 45.2596 12.456V6.264ZM51.8688 3.48C51.0528 3.48 50.3808 2.808 50.3808 1.992C50.3808 1.152 51.0528 0.503999 51.8688 0.503999C52.6848 0.503999 53.3568 1.152 53.3568 1.992C53.3568 2.808 52.6848 3.48 51.8688 3.48ZM50.7648 18V6.264H53.0208V18H50.7648ZM58.5521 18H56.2961V6.264H58.3361L58.5761 8.064C59.3201 6.72 60.8081 5.928 62.4641 5.928C65.5601 5.928 66.9761 7.824 66.9761 10.824V18H64.7201V11.328C64.7201 8.952 63.6161 7.992 61.8881 7.992C59.7761 7.992 58.5521 9.504 58.5521 11.784V18ZM72.3568 18H70.1008V6.264H72.1408L72.3808 8.064C73.1248 6.72 74.6128 5.928 76.2688 5.928C79.3648 5.928 80.7808 7.824 80.7808 10.824V18H78.5248V11.328C78.5248 8.952 77.4208 7.992 75.6928 7.992C73.5808 7.992 72.3568 9.504 72.3568 11.784V18ZM88.9694 18.288C85.5134 18.288 83.1374 15.792 83.1374 12.144C83.1374 8.472 85.4654 5.928 88.8734 5.928C92.2094 5.928 94.3934 8.232 94.3934 11.712V12.552L85.3214 12.576C85.4894 15.048 86.7854 16.416 89.0174 16.416C90.7694 16.416 91.9214 15.696 92.3054 14.352H94.4174C93.8414 16.872 91.8734 18.288 88.9694 18.288ZM88.8734 7.824C86.9054 7.824 85.6574 9 85.3694 11.064H92.1374C92.1374 9.12 90.8654 7.824 88.8734 7.824ZM95.9533 14.592H98.1133C98.1133 15.792 99.0253 16.512 100.513 16.512C102.097 16.512 103.009 15.864 103.009 14.784C103.009 13.992 102.625 13.512 101.401 13.2L99.3373 12.72C97.2493 12.216 96.2653 11.184 96.2653 9.456C96.2653 7.296 98.0893 5.928 100.681 5.928C103.249 5.928 104.929 7.368 104.977 9.6H102.817C102.769 8.424 101.977 7.68 100.609 7.68C99.1933 7.68 98.4013 8.304 98.4013 9.384C98.4013 10.176 98.9773 10.704 100.129 10.992L102.193 11.496C104.185 11.976 105.169 12.888 105.169 14.64C105.169 16.872 103.249 18.288 100.465 18.288C97.7053 18.288 95.9533 16.824 95.9533 14.592ZM106.711 14.592H108.871C108.871 15.792 109.783 16.512 111.271 16.512C112.855 16.512 113.767 15.864 113.767 14.784C113.767 13.992 113.383 13.512 112.159 13.2L110.095 12.72C108.007 12.216 107.023 11.184 107.023 9.456C107.023 7.296 108.847 5.928 111.439 5.928C114.007 5.928 115.687 7.368 115.735 9.6H113.575C113.527 8.424 112.735 7.68 111.367 7.68C109.951 7.68 109.159 8.304 109.159 9.384C109.159 10.176 109.735 10.704 110.887 10.992L112.951 11.496C114.943 11.976 115.927 12.888 115.927 14.64C115.927 16.872 114.007 18.288 111.223 18.288C108.463 18.288 106.711 16.824 106.711 14.592ZM120.685 18H118.429V6.264H120.469L120.709 8.064C121.453 6.72 122.941 5.928 124.597 5.928C127.693 5.928 129.109 7.824 129.109 10.824V18H126.853V11.328C126.853 8.952 125.749 7.992 124.021 7.992C121.909 7.992 120.685 9.504 120.685 11.784V18ZM131.49 11.832C131.49 8.52 133.626 5.928 137.034 5.928C138.93 5.928 140.394 6.792 141.138 8.256L141.306 6.264H143.322V17.52C143.322 21.216 141.042 23.568 137.442 23.568C134.25 23.568 132.066 21.768 131.634 18.792H133.89C134.178 20.52 135.474 21.528 137.442 21.528C139.65 21.528 141.09 20.088 141.09 17.856V15.504C140.322 16.872 138.786 17.688 136.938 17.688C133.602 17.688 131.49 15.12 131.49 11.832ZM133.746 11.784C133.746 13.992 135.114 15.72 137.322 15.72C139.602 15.72 140.994 14.088 140.994 11.784C140.994 9.528 139.65 7.896 137.346 7.896C135.09 7.896 133.746 9.624 133.746 11.784ZM153.297 6.168V8.232H152.289C150.153 8.232 148.833 9.528 148.833 11.784V18H146.577V6.288H148.689L148.833 8.064C149.313 6.84 150.489 6.024 152.097 6.024C152.505 6.024 152.841 6.072 153.297 6.168ZM155.413 23.256V6.264H157.453L157.621 8.376C158.413 6.768 159.997 5.928 161.869 5.928C165.229 5.928 167.317 8.448 167.317 12.048C167.317 15.624 165.349 18.312 161.869 18.312C159.997 18.312 158.437 17.52 157.669 16.08V23.256H155.413ZM157.693 12.144C157.693 14.544 159.085 16.272 161.389 16.272C163.693 16.272 165.061 14.544 165.061 12.144C165.061 9.72 163.693 7.992 161.389 7.992C159.085 7.992 157.693 9.696 157.693 12.144ZM172.108 18H169.852V0.335999H172.108V18ZM174.661 12.144C174.661 8.472 176.989 5.928 180.421 5.928C183.373 5.928 185.437 7.608 185.845 10.224H183.589C183.205 8.736 182.005 7.944 180.493 7.944C178.357 7.944 176.893 9.576 176.893 12.12C176.893 14.64 178.261 16.272 180.397 16.272C182.005 16.272 183.205 15.432 183.613 14.04H185.869C185.413 16.584 183.229 18.288 180.397 18.288C176.941 18.288 174.661 15.84 174.661 12.144Z" fill="white"/>
</svg>
