<svg width="105" height="19" viewBox="0 0 105 19" fill="none" xmlns="http://www.w3.org/2000/svg">
<path d="M2.78988 0.776417V18.1284H0.437875V0.776417H2.78988ZM10.3403 18.1284L5.18031 0.776417H7.62831L10.7963 11.3844C11.0363 12.2964 11.2763 13.2084 11.5163 14.5284C11.8043 13.1364 12.0683 12.2964 12.3323 11.3844L15.6203 0.776417H18.1643L21.4283 11.3844C21.7163 12.3204 21.9563 13.2324 22.2203 14.5284C22.5083 13.0644 22.7483 12.1764 22.9883 11.4084L26.1803 0.776417H28.5803L23.3483 18.1284H21.0923L16.8923 4.40042L12.6443 18.1284H10.3403ZM36.6895 18.1284H30.9535V0.776417H36.5935C41.7775 0.776417 45.2815 4.28042 45.2815 9.46442C45.2815 14.6244 41.8255 18.1284 36.6895 18.1284ZM36.4255 2.93642H33.3055V15.9444H36.5215C40.3855 15.9444 42.8335 13.4484 42.8335 9.46442C42.8335 5.43242 40.3855 2.93642 36.4255 2.93642ZM59.0738 18.1044L47.3618 18.1284V16.3284L52.9538 11.5044C55.7618 9.08042 56.5538 7.90442 56.5538 6.05642C56.5538 3.87242 55.3058 2.57642 53.2178 2.57642C51.0818 2.57642 49.6898 4.13642 49.6418 6.60842H47.2898C47.3618 2.88842 49.7138 0.464417 53.2418 0.464417C56.7218 0.464417 58.9538 2.57642 58.9538 5.91242C58.9538 8.38442 57.7298 10.1364 54.6578 12.8004L51.0578 15.9204H59.0738V18.1044ZM61.2385 9.46442C61.2385 4.08842 64.0225 0.440417 68.3905 0.440417C72.7345 0.440417 75.5185 4.08842 75.5185 9.46442C75.5185 14.8644 72.8545 18.4404 68.3905 18.4404C63.9025 18.4404 61.2385 14.8644 61.2385 9.46442ZM63.5665 9.46442C63.5665 13.7364 65.3425 16.3284 68.3905 16.3284C71.4385 16.3284 73.1905 13.7364 73.1905 9.46442C73.1905 5.14442 71.4385 2.55242 68.3905 2.55242C65.3425 2.55242 63.5665 5.14442 63.5665 9.46442ZM89.5191 18.1044L77.8071 18.1284V16.3284L83.3991 11.5044C86.2071 9.08042 86.9991 7.90442 86.9991 6.05642C86.9991 3.87242 85.7511 2.57642 83.6631 2.57642C81.5271 2.57642 80.1351 4.13642 80.0871 6.60842H77.7351C77.8071 2.88842 80.1591 0.464417 83.6871 0.464417C87.1671 0.464417 89.3991 2.57642 89.3991 5.91242C89.3991 8.38442 88.1751 10.1364 85.1031 12.8004L81.5031 15.9204H89.5191V18.1044ZM104.151 14.6244H102.087V18.1284H99.8311V14.6244H90.8551V12.5364L99.0391 0.776417H102.087V12.5364H104.151V14.6244ZM93.3991 12.5364H99.8311V3.27242L93.3991 12.5364Z" fill="white"/>
</svg>
