<svg width="339" height="339" viewBox="0 0 339 339" fill="none" xmlns="http://www.w3.org/2000/svg">
<g clip-path="url(#clip0_96_825)">
<path d="M149.362 89.1666C159.788 102.029 159.836 101.257 159.279 101.758C154.952 105.656 137.248 120.045 134.398 122.513C133.832 123.005 96.8727 154.316 93.3828 156.89C92.8013 157.318 91.8783 158.453 90.9511 157.621C89.8737 156.655 87.6606 154.185 81.7103 146.959C67.3243 129.482 61.4231 124.452 60.9534 116.922C60.7208 113.047 62.3758 109.337 67.6533 104.882C67.6737 104.871 110.732 70.5363 114.082 67.6076C120.089 62.3521 123.289 63.2195 124.502 63.3828C127.026 63.7151 128.918 65.1998 131.208 67.3112C136.285 72.0003 141.807 79.8459 149.362 89.1666ZM152.216 101.551C152.675 102.022 154.174 101.63 153.517 100.538C152.881 99.4757 151.016 100.315 152.214 101.544L152.216 101.551ZM149.638 103.302C149.694 103.415 149.773 103.514 149.869 103.594C149.966 103.674 150.078 103.733 150.199 103.767C150.32 103.801 150.446 103.809 150.57 103.791C150.694 103.773 150.813 103.729 150.919 103.662C151.025 103.595 151.116 103.506 151.185 103.402C151.255 103.297 151.302 103.18 151.323 103.056C151.344 102.932 151.339 102.806 151.308 102.684C151.277 102.563 151.221 102.449 151.143 102.351C151.089 102.237 151.011 102.136 150.915 102.055C150.818 101.973 150.706 101.913 150.585 101.878C150.464 101.843 150.337 101.834 150.212 101.852C150.087 101.869 149.968 101.913 149.861 101.98C149.754 102.046 149.663 102.135 149.592 102.24C149.522 102.345 149.475 102.463 149.454 102.587C149.433 102.711 149.438 102.839 149.469 102.961C149.5 103.083 149.557 103.197 149.636 103.295L149.638 103.302ZM147.708 105.939C148.905 106.189 149.28 104.076 148.038 104.03C147.01 103.984 146.619 105.704 147.706 105.932L147.708 105.939ZM108.404 125.315C108.752 124.94 108.316 124.077 107.684 124.564C107.144 125.108 106.563 125.61 105.947 126.065C105.553 126.383 105.238 126.786 105.026 127.245C104.604 128.119 103.645 127.251 103.348 128.476C102.664 131.305 101.097 128.099 100.264 130.602C99.1914 133.823 100.534 132.777 100.59 132.654C100.794 132.128 100.954 131.586 101.069 131.033C101.576 129.512 103.097 132.44 104.149 129.139C104.424 128.264 105.233 129.067 105.829 127.963C106.647 126.438 106.855 126.986 108.404 125.315ZM107.081 136.875C108.732 135.205 107.442 134.835 106.977 135.404C106.073 136.513 105.732 135.768 105.212 136.665C104.774 137.424 104.682 136.971 104.214 137.482C103.364 138.418 102.948 137.64 102.09 139.046C100.852 141.068 101.01 138.798 99.7425 141.18C99.0982 142.396 98.4431 141.145 98.0337 142.395C97.7914 143.133 97.9194 143.452 97.1541 143.475C96.8607 143.483 96.1627 143.506 96.0364 143.771C95.2381 145.456 96.8157 146.73 96.7304 144.857C96.6803 143.763 98.2463 145.307 98.7699 143.275C98.9872 142.434 100.073 143.07 100.573 141.734C101.137 140.231 101.82 141.752 102.807 139.859C103.241 139.024 103.612 139.198 104.63 138.553C106.657 137.264 105.043 137.722 107.081 136.875ZM86.2641 107.253C86.6746 106.317 85.8962 105.872 85.7397 105.921C84.8873 106.195 85.4109 106.802 84.628 106.661C84.0608 106.559 82.6556 106.037 82.6038 107.322C82.5318 109.149 83.5634 109.212 81.5456 108.564C80.5975 108.261 79.8328 108.73 79.7428 110.034C79.6936 110.787 80.091 111.3 79.5583 111.116C76.2152 109.693 77.3202 112.378 77.2089 113.42C76.4707 113.265 76.518 113.045 75.9535 112.848C75.1931 112.582 74.5085 112.986 74.5815 114.221C74.6214 114.906 74.2254 114.314 73.3137 114.166C70.7381 113.747 72.3718 117.058 72.5213 118.346C72.5883 118.916 71.8655 117.999 71.0566 117.342C70.9277 117.203 70.7578 117.11 70.5718 117.075C70.3858 117.04 70.1935 117.065 70.023 117.148C69.8526 117.23 69.7131 117.365 69.6249 117.532C69.5368 117.7 69.5046 117.891 69.5331 118.078C69.5001 119.112 69.6776 120.142 70.0548 121.105C70.2386 121.391 70.5272 121.923 70.8407 121.695C71.4518 121.25 70.7619 121.409 70.4717 118.647C70.3818 117.797 71.2089 118.952 71.8726 119.449C72.028 119.593 72.2234 119.685 72.4327 119.715C72.642 119.745 72.8553 119.71 73.0445 119.616C73.2337 119.521 73.3898 119.372 73.492 119.187C73.5943 119.002 73.6378 118.79 73.617 118.58C73.477 117.66 73.2621 116.754 72.9743 115.869C72.5812 114.179 75.2276 116.638 75.3041 116.681C75.4031 116.746 75.5194 116.779 75.6378 116.778C75.7563 116.776 75.8714 116.738 75.9682 116.67C76.065 116.602 76.139 116.506 76.1807 116.395C76.2223 116.284 76.2296 116.163 76.2016 116.048C75.9926 115.405 75.8497 114.742 75.7751 114.069C76.1152 114.219 76.3612 114.392 76.8392 114.648C77.0186 114.745 77.222 114.79 77.4258 114.777C77.6297 114.764 77.8257 114.694 77.9912 114.574C78.1566 114.454 78.2848 114.29 78.3608 114.1C78.4367 113.911 78.4574 113.704 78.4205 113.503C78.0104 111.188 78.254 111.997 79.7404 112.493C79.9005 112.558 80.0753 112.579 80.2463 112.553C80.4173 112.528 80.5782 112.456 80.7121 112.347C80.846 112.237 80.948 112.094 81.0073 111.932C81.0665 111.769 81.0809 111.594 81.049 111.424C80.373 108.936 81.4877 109.895 82.3429 110.138C85.1302 110.936 83.392 107.717 84.0433 107.786C85.0789 107.889 85.878 108.142 86.2641 107.253ZM105.604 142.239C105.686 142.156 105.736 142.047 105.748 141.93C105.759 141.814 105.73 141.698 105.666 141.6C105.602 141.502 105.507 141.429 105.396 141.393C105.285 141.357 105.165 141.359 105.056 141.4C104.513 141.595 104.434 142.475 102.883 142.951C102.355 143.172 101.927 143.58 101.683 144.098C100.517 145.868 99.5535 144.65 99.0526 146.106C98.7702 146.926 98.248 146.104 98.1725 146.901C98.1485 147.064 98.1807 147.232 98.2637 147.375C98.3468 147.518 98.4759 147.629 98.63 147.689C98.7841 147.75 98.9541 147.756 99.1124 147.708C99.2706 147.659 99.4078 147.558 99.5016 147.422C99.8794 146.869 99.7117 146.37 100.505 146.164C102.915 145.535 101.647 144.613 104.196 143.568C104.755 143.231 105.236 142.778 105.604 142.239ZM93.5135 137.993C94.0743 137.201 93.1987 136.718 92.6801 137.278C92.6623 137.297 91.0055 139.442 90.371 139.395C88.968 139.288 89.4576 140.883 88.3135 140.749C87.2808 140.629 87.2042 140.854 86.9783 141.782C86.5451 143.571 84.9436 140.879 84.9582 144.483C84.9611 145.133 85.7396 145.246 85.8294 144.521C85.9481 143.546 85.6142 143.471 86.9149 143.465C87.3455 143.467 87.6222 143.217 87.9126 142.123C88.1501 141.23 89.0144 142.791 89.9686 140.927C90.2626 140.355 90.4167 140.525 91.0712 140.369C93.2913 138.558 92.6597 139.197 93.5146 137.992L93.5135 137.993ZM70.696 124.68C70.0432 121.665 68.5006 118.914 66.2678 116.785C64.4135 115.205 63.7526 121.195 65.4621 122.437C65.5749 122.506 65.7089 122.532 65.8392 122.509C65.9695 122.487 66.0871 122.418 66.1703 122.315C66.4582 121.965 65.7053 121.611 65.5525 120.704C65.4135 119.878 65.6034 117.452 66.0084 117.943C71.0281 124.031 68.86 125.394 69.8713 125.787C70.4645 126.015 70.7252 125.138 70.696 124.68Z" fill="white"/>
<path d="M295.483 229.378C295.483 229.378 276.951 216.585 273.27 212.873C269.589 209.16 267.12 202.75 265.505 199.687C263.89 196.625 256.515 181.986 255.298 179.615C254.081 177.245 247.458 168.164 246.127 165.86C244.797 163.555 239.546 155.524 237.634 152.48C235.722 149.436 229.892 144.659 227.561 143.548C225.23 142.437 214.833 135.072 213.17 132.192C211.507 129.312 205.228 121.104 200.223 119.08C195.219 117.055 190.241 115.604 185.678 110.095C181.114 104.587 176.24 95.9012 172.738 99.1513C169.237 102.401 168.371 107.818 171.799 114.29L189.93 157.669L128.475 227.257C128.475 227.257 124.07 228.91 123.591 231.148C122.73 233.928 122.789 236.911 123.758 239.655C124.214 240.971 124.926 242.183 125.852 243.223C126.778 244.262 127.9 245.109 129.154 245.713C129.781 245.924 136.644 249.044 140.328 249.069C143.432 249.156 146.454 250.077 149.079 251.734C150.167 252.625 167.68 260.611 169.223 260.983C169.223 260.983 186.017 266.118 192.696 266.153C199.375 266.189 220.365 269.46 224.532 271.355C224.532 271.355 245.191 260.628 252.471 255.617C262.718 248.565 269.276 246.142 281.424 238.447C287.989 234.287 294.234 231.453 295.483 229.378Z" fill="#964B00"/>
<path d="M210.533 162.534C217.378 170.297 216.827 170.079 216.48 170.446C214.691 172.351 196.992 187.184 196.451 187.673C195.959 188.116 193.257 181.913 192.405 180.383C192.188 179.994 192.39 179.976 193.071 179.403C194.006 178.615 193.13 178.856 188.898 170.357C187.247 167.041 186.933 167.483 188 166.818C190.492 164.993 192.86 163.005 195.087 160.865C196.573 159.536 199.757 157.049 202.46 154.867C203.855 153.732 202.58 153.516 210.533 162.534Z" fill="#FFF59E"/>
<path d="M202.639 152.952C203.042 153.435 203.086 153.231 198.279 157.025C191.638 162.269 194.65 160.564 190.675 163.525C186.444 166.683 187.168 167.396 186.112 165.4C183.438 160.349 182.617 158.603 179.499 155.891C178.511 155.03 177.434 154.824 175.372 154.67C174.416 154.599 174.056 155.317 173.512 154.385C171.252 150.512 170.356 150.869 169.36 148.805C168.919 147.811 168.558 146.783 168.282 145.731C167.221 142.264 165.215 142.291 163.862 139.511C163.069 138.131 162 136.929 160.722 135.98C159.444 135.032 157.983 134.357 156.433 133.998C154.887 133.684 157.486 133.856 158.633 129.928C158.818 129.296 158.869 129.013 158.605 128.853C157.412 128.132 157.389 129.71 152.513 130.16C151.66 130.224 150.802 130.181 149.959 130.032C150.516 129.317 150.977 128.531 151.331 127.696C152.067 125.872 151.24 124.067 150.185 124.991C147.806 127.07 144.318 126.816 142.878 126.795C141.059 126.808 139.248 127.032 137.481 127.464C136.034 127.065 133.456 125.364 129.862 129.627C129.395 130.288 129.019 131.01 128.745 131.772C127.929 133.568 129.19 135.713 129.809 136.386C130.41 137.041 128.532 136.836 126.576 139.367C123.719 143.052 124.194 148.174 126.686 152.114C128.108 154.825 128.991 155.873 128.436 157.967C127.715 159.962 127.51 162.107 127.839 164.202C128.718 168.512 129.709 167.77 128.611 168.356C127.776 168.8 127.862 169.687 128.574 170.314C128.881 170.585 129.094 170.815 128.876 170.958C128.694 171.056 128.551 171.212 128.468 171.401C128.385 171.59 128.367 171.801 128.417 172.001C128.686 173.399 132.266 174.908 131.328 175.308C130.497 175.661 130.042 176.112 130.259 176.98C130.359 177.378 130.705 177.689 132.002 178.168C133.166 178.597 133.484 178.406 133.444 178.883C133.066 183.335 132.798 185.135 136.055 188.392C136.501 188.838 136.861 188.473 136.863 189.273C136.869 193.587 146.773 203.555 145.657 204.585C142.861 207.164 145.299 204.523 137.541 211.792C136.954 212.341 129.697 202.951 128.957 202.076C103.562 172.001 95.3045 163.003 93.0193 160.122C92.0576 159.046 93.6496 157.99 94.0334 157.692C104.382 149.663 140.174 118.753 140.195 118.735C140.216 118.718 158.097 104.48 158.998 103.345C159.268 103.042 159.571 102.771 159.902 102.537C160.135 102.352 160.532 102.612 161.203 103.303C164.078 106.298 170.507 114.633 175.964 120.494C176.057 120.613 202.622 152.933 202.639 152.952Z" fill="#D8E9FF"/>
<path d="M179.782 157.454C181.077 158.929 182.251 160.506 183.291 162.171C189.539 174.163 189.911 173.766 189.299 174.225C189.061 174.404 188.911 174.773 188.663 174.843C188.414 174.913 188.105 174.698 187.814 174.628C187.55 174.554 187.273 174.538 187.001 174.581C186.73 174.625 186.472 174.727 186.244 174.881C186.017 175.035 185.826 175.237 185.684 175.473C185.543 175.708 185.455 175.972 185.426 176.245C185.221 177.896 183.683 175.831 182.212 177.197C180.676 178.625 181.618 179.506 180.319 179.415C174.75 179.027 179.369 184.575 174.272 174.234C173.612 173.163 173.058 172.031 172.618 170.852C172.551 170.623 172.303 170 171.881 170.132C171.158 170.368 172.303 172.634 174.444 176.803C175.608 179.068 175.208 179.329 177.545 183.862C178.944 186.579 180.423 184.652 181.023 185.932C182.64 189.383 182.369 188.634 182.403 189.066C180.952 188.937 163.7 179.46 164.596 173.366C164.979 170.759 167.296 168.371 168.953 166.33C169.363 165.827 170.426 163.426 171.895 161.288C172.7 160.108 172.345 158.722 171.148 159.143C169.909 159.571 169.601 160.554 170.395 157.949C170.554 157.428 170.581 157.152 171.009 156.956C171.805 156.511 172.646 156.152 173.519 155.886C176.813 155.258 178.633 156.137 179.782 157.454Z" fill="#EAAC3B"/>
<path d="M166.746 144.292C167.339 145.663 167.829 147.076 168.212 148.519C168.992 150.576 170.118 150.67 172.663 154.627C172.91 155.01 172.858 155.02 172.418 155.21C171.049 155.797 170.763 156.353 170.09 155.959C169.599 155.669 169.071 155.974 168.677 156.143C168.077 156.403 167.844 150.392 166.695 150.215C166.516 150.177 166.331 150.19 166.158 150.251C165.986 150.312 165.834 150.419 165.719 150.561C164.881 151.589 165.241 153.271 165.235 153.653C165.229 153.961 164.574 153.891 164.326 155.156C163.319 160.24 164 157.945 162.194 153.138C160.435 148.46 159.882 149.133 159.214 145.838C159.135 145.454 157.99 139.304 156.729 139.645C155.969 139.85 157.383 140.638 157.973 144.279C158.71 148.793 159.52 148.943 161.064 152.755C161.39 153.569 163.22 158.851 162.447 158.421C162.394 158.393 161.21 157.18 160.67 158.588C158.855 163.324 158.153 163.779 158.327 163.272C161.485 154.11 157.636 148.78 156.882 146.772C155.935 144.246 155.717 139.139 152.488 138.402C147.393 137.237 146.025 140.103 139.228 134.512C138.307 133.755 137.631 134.002 137.882 134.411C138.292 135.078 138.768 135.088 138.292 135.343C136.784 136.15 133.207 138.864 132.613 140.426C130.888 144.954 131.03 144.748 132.974 151.278C134.873 157.66 134.235 159.416 138.729 164.391C144.409 170.694 152.338 171.439 139.746 169.102C138.865 168.939 138.57 170.04 139.132 170.888C139.392 171.274 139.764 171.631 139.031 171.688C136.307 171.9 133.668 168.075 132.266 168.962C131.912 169.186 131.64 169.303 131.252 169.014C130.765 168.566 130.355 168.039 130.04 167.456C128.263 164.602 128.454 161.911 129.321 158.822C130.285 155.391 128.505 153.675 127.009 150.85C125.885 148.913 125.383 146.678 125.571 144.447C125.791 142.787 126.448 141.215 127.476 139.893C128.014 139.172 128.704 138.577 129.496 138.151C130.288 137.724 131.165 137.475 132.063 137.423C132.745 137.198 132.528 136.691 132.08 136.554C131.631 136.416 131.056 136.75 129.997 135.179C128.601 133.1 129.933 130.921 131.694 129.129C133.822 126.971 136.393 127.878 135.903 128.304C134.971 129.113 133.169 130.511 132.955 132.326C132.846 133.264 133.654 135.057 134.219 134.656C135.071 134.051 132.142 132.796 135.817 129.65C138.586 127.281 142.512 127.816 145.423 127.787C147.995 127.76 150.804 125.185 150.596 126.332C150.544 127.022 150.337 127.691 149.991 128.291C149.646 128.89 149.17 129.405 148.599 129.796C147.508 130.783 136.873 127.999 136.272 133.143C136.212 133.66 136.743 133.93 137.039 133.344C138.373 130.695 139.319 130.349 151.474 130.992C154.413 131.148 156.244 130.047 157.615 129.917C157.363 130.722 156.971 131.476 156.457 132.145C154.612 134.561 151.493 132.601 150.148 132.564C149.204 132.536 146.858 132.374 146.085 132.838C146.001 132.889 145.941 132.972 145.918 133.068C145.895 133.163 145.911 133.264 145.962 133.348C146.239 133.803 146.712 133.202 149.067 133.397C149.915 133.467 157.568 135.316 157.829 135.43C159.617 136.225 162.062 137.903 162.829 139.641C163.934 142.137 165.761 142.62 166.746 144.292ZM161.245 140.899C160.766 140.256 160.568 139.816 160.168 140.089C159.769 140.362 160.253 140.416 160.922 142.265C163.83 150.277 164.474 147.898 164.141 147.312C162.414 144.279 163.422 146.607 161.245 140.899ZM152.03 136.542C152.88 136.81 153.057 136.426 152.817 136.076C151.245 135.213 150.732 135.388 147.251 134.867C142.712 134.185 143.042 133.134 140.807 132.944C141.246 133.895 144.39 135.117 145.401 135.382C147.423 135.917 150.576 136.088 152.026 136.544L152.03 136.542ZM130.362 140.249C134.002 136.84 127.359 138.536 128.071 144.93C128.273 146.768 128.858 147.9 130.467 151.986C130.67 152.501 131.204 152.178 131.102 151.797C130.236 148.565 127.129 143.278 130.362 140.249ZM136.161 167.884C132.519 165.275 132.933 157.162 132.183 157.428C131.882 157.534 131.845 157.676 131.861 158.111C132.497 170.416 138.197 169.345 136.161 167.884Z" fill="#313131"/>
<path d="M166.393 150.977C166.576 150.922 166.811 151.141 166.87 151.471C167.22 153.437 167.393 154.857 167.889 156.818C168.054 157.466 166.247 162.514 165.885 163.223C165.804 163.224 165.724 163.217 165.645 163.2C164.112 162.686 164.093 162.72 164.325 162.315C165.906 159.554 166.661 158.64 166.392 156.397C165.923 152.504 165.476 151.348 166.393 150.977Z" fill="#964B00"/>
<path d="M169.853 156.885C169.573 158.118 167.857 164.409 166.733 163.765C166.265 163.497 166.713 163.171 167.274 161.592C168.404 158.406 168.558 156.483 169.737 156.713C169.756 156.716 169.775 156.724 169.791 156.734C169.807 156.745 169.821 156.759 169.831 156.775C169.842 156.791 169.85 156.809 169.853 156.828C169.857 156.847 169.857 156.866 169.853 156.885Z" fill="#964B00"/>
<path d="M140.951 137.098C146.692 140.99 152.602 137.53 153.932 140.628C154.418 141.764 154.794 142.944 155.055 144.152C155.14 144.532 155.114 144.583 154.723 144.581C151.864 144.564 150.876 145.204 148.699 145.84C147.911 146.164 147.19 146.629 146.57 147.212C146.415 147.328 146.293 147.482 146.217 147.66C146.142 147.838 146.115 148.033 146.14 148.225C146.215 149.264 145.409 148.335 144.156 149.394C143.482 149.963 143.685 147.108 135.568 150.609C134.504 151.069 134.389 152.04 134.131 151.365C131.241 143.842 131.822 141.33 138.064 136.469C139.901 135.656 139.136 135.866 140.951 137.098ZM152.132 143.62C152.379 143.584 153.737 143.92 153.204 142.748C151.782 141.773 149.841 143.431 148.018 143.842C147.317 144 146.556 143.774 146.481 144.255C146.383 144.885 146.962 145.007 147.597 145.007C149.735 145.004 149.863 143.962 152.132 143.62ZM139.502 148.032C142.708 147.254 141.804 144.828 140.412 146.259C139.848 146.839 139.47 146.828 136.785 147.637C136.317 148.066 134.341 149.681 135.361 150.193C135.816 150.422 135.962 149.959 136.225 149.638C137.327 148.299 137.886 148.423 139.501 148.032L139.502 148.032Z" fill="#964B00"/>
<path d="M189.324 179.559C184.729 181.935 185.323 180.64 181.264 183.426C180.874 183.693 180.868 183.696 181.076 184.107C184.007 189.861 184.137 190.029 184.4 190.172C186.584 191.36 187.177 191.344 187.546 192.21C187.726 192.634 187.354 193.117 186.647 192.674C183.035 190.463 170.144 185.126 164.939 177.489C161.136 171.912 166.789 168.673 168.881 164.725C170.304 162.042 171.596 160.723 171.337 160.157C170.767 158.923 167.62 164.914 166.885 165.547C161.587 170.079 159.507 170.997 159.791 174.009C159.803 174.116 159.731 174.228 159.695 174.339C159.569 174.291 159.405 174.275 159.322 174.188C159.085 173.539 159.024 172.839 159.146 172.158C159.267 171.478 159.566 170.842 160.012 170.315C161.477 168.769 163.14 167.424 164.958 166.315C165.467 165.916 165.313 165.913 163.878 165.108C162.288 164.215 164.528 164.462 165.151 165.063C165.301 165.167 165.47 165.241 165.649 165.28C165.998 165.406 166.165 165.324 166.351 164.943C166.475 164.694 166.445 164.584 166.067 164.391C165.059 163.828 163.952 163.465 162.807 163.323C162.729 163.331 162.65 163.318 162.579 163.284C162.508 163.251 162.448 163.199 162.404 163.134C162.361 163.068 162.336 162.993 162.333 162.914C162.329 162.836 162.347 162.758 162.385 162.69C162.44 162.625 162.51 162.575 162.588 162.543C162.667 162.512 162.752 162.5 162.837 162.509C163.476 162.508 163.276 162.318 164.864 159.572C165.549 158.324 165.804 156.884 165.589 155.476C165.494 154.941 165.184 154.669 165.121 154.993C164.86 156.325 164.738 159.213 162.796 161.546C162.049 162.745 161.374 163.988 160.775 165.267C159.801 166.896 160.806 168.709 159.973 169.377C158.852 166.849 159.922 164.825 161.48 161.601C162.37 159.756 161.839 158.735 161.334 159.252C160.61 161.612 159.524 163.845 158.115 165.873C157.363 166.829 156.756 167.892 156.314 169.026C154.998 173.106 156.955 176.217 158.345 179.063C162.339 185.039 177.057 204.055 178.807 202.572C188.552 194.32 192.325 191.408 194.713 189.204C195.984 188.04 194.733 187.617 193.083 184.007C190.991 179.414 191.085 178.649 189.324 179.559Z" fill="#964B00"/>
<path d="M153.098 151.479C156.477 150.222 155.221 146.376 156.672 148.889C157.722 150.911 158.352 153.125 158.524 155.398C158.766 159.542 157.527 163.637 155.03 166.954C149.528 175.006 135.86 162.937 135.051 154.917C134.944 153.862 137.114 157.397 141.099 155.916C143.811 154.909 143.901 152.201 144.108 151.224C144.293 150.694 144.674 150.254 145.174 149.996C145.673 149.738 146.252 149.681 146.792 149.838C147.784 150.073 148.708 153.119 153.098 151.479ZM155.537 157.439C156.04 157.319 155.847 156.667 155.777 156.12C154.281 154.354 153.033 155.414 153.854 155.979C155.006 156.766 147.892 158.258 144.41 159.902C143.718 160.228 142.958 160.562 143.07 159.849C143.297 158.429 141.563 159.336 142.048 161.798C142.164 162.398 142.877 162.145 142.853 161.674C142.855 161.522 142.868 161.371 142.893 161.221C143.979 161.549 147.838 164.424 149.356 164.792C152.532 165.563 153.648 160 154.731 157.287C154.98 156.657 154.989 157.572 155.531 157.442L155.537 157.439ZM149.076 153.511C149.128 153.406 149.141 153.286 149.114 153.173C149.087 153.059 149.02 152.959 148.926 152.89C148.832 152.821 148.716 152.787 148.6 152.794C148.483 152.802 148.373 152.85 148.289 152.931C147.787 153.364 147 154.646 145.799 154.089C144.994 153.717 145.194 153.462 145.599 152.669C145.85 152.176 145.594 150.369 144.37 152.772C143.132 155.199 147.867 156.704 149.07 153.514L149.076 153.511Z" fill="#964B00"/>
<path d="M177.198 203.42C177.62 203.828 177.611 203.612 173.344 207.121C173.308 207.103 169.192 199.066 165.998 193.206C157.786 178.14 163.207 189.891 177.198 203.42Z" fill="#EAAC3B"/>
<path d="M154.313 169.432C155.149 168.817 155.456 168.502 155.336 168.971C154.389 172.716 156.042 173.702 153.933 172.231C153.493 171.923 151.85 171.008 151.562 170.75C151.549 170.739 151.54 170.725 151.535 170.709C151.53 170.694 151.53 170.677 151.533 170.661C151.537 170.645 151.545 170.63 151.557 170.618C151.568 170.606 151.583 170.597 151.599 170.593C152.558 170.35 153.474 169.958 154.313 169.432Z" fill="#FFCEB6"/>
<path d="M149.19 162.179C150.486 161.617 150.818 161.552 151.772 161.957C150.533 164.496 149.57 163.775 148.464 163.209C147.956 162.951 148.483 162.692 149.19 162.179Z" fill="#FF9C9F"/>
<path d="M151.928 172.088C153.421 172.844 154.665 174.015 155.51 175.46C173.606 210.731 173.307 207.101 171.506 208.647C160.904 217.752 161.889 216.294 159.533 218.588C159.265 218.851 159.173 218.578 158.733 217.947C158.115 217.056 157.38 216.279 156.698 215.449C152.75 210.647 153.257 210.419 151.275 208.586C148.227 205.764 151.31 202.536 155.337 200.687C157.415 199.733 157.466 199.028 157.706 200.115C158.918 205.62 159.034 210.294 159.721 211.541C161.725 215.213 159.846 197.897 152.06 182.263C149.974 178.075 145.91 181.011 136.9 178.621C136.879 178.615 134.587 178.086 132.871 177.582C132.198 177.384 131.089 177.179 130.922 176.687C130.866 176.514 130.982 176.356 131.167 176.246C131.409 176.107 131.692 176.061 131.965 176.115C132.745 176.256 134.399 176.827 134.876 176.961C139.215 178.179 139.835 176.982 140.254 177.925C140.644 178.801 141.244 178.266 141.023 177.646C140.714 176.324 140.62 174.962 140.744 173.61C140.73 173.019 140.135 173.356 140.114 173.512C139.956 174.519 137.141 173.666 135.974 172.789C135.526 172.452 133.378 170.558 132.911 170.145C132.445 169.731 132.993 169.525 133.237 169.67C135.718 171.169 136.31 171.905 137.438 172.256C138.691 172.613 140.001 172.731 141.299 172.604C141.41 172.599 144.138 173.02 144.181 173.026C146.144 173.325 146.33 173.217 147.362 174.131C148.752 175.361 148.625 175.327 147.774 175.275C146.968 175.227 146.941 175.361 144.884 176.091C144.077 176.378 143.643 176.511 143.72 176.882C144.011 178.289 147.047 174.893 151.336 177.079C152.223 177.53 153.005 176.746 151.819 176.204C147.886 174.395 148.016 172.263 145.224 172.294C143.841 172.08 142.478 171.758 141.145 171.33C140.595 171.199 139.6 170.473 139.814 169.951C140.028 169.429 141.559 170.662 145.921 171.105C148.076 171.336 150.541 171.129 151.928 172.088ZM142.015 174.624C141.852 174.155 141.325 174.218 141.285 174.654C140.948 178.188 142.488 178.132 142.321 177.193C142.165 176.344 142.063 175.486 142.015 174.624Z" fill="#964B00"/>
<path d="M148.409 180.896C151.34 181.109 151.252 182.928 152.637 185.382C152.747 185.573 155.554 192.188 154.61 191.247C149.565 186.216 148.004 184.361 147.557 184.759C146.776 185.455 148.514 186.318 153.253 191.351C154.854 193.052 154.72 193.409 155.537 194.243C156.49 195.215 153.943 194.135 153.857 196.309C153.84 196.775 153.67 196.764 152.782 196.803C152.285 196.833 151.813 197.032 151.444 197.367C151.076 197.703 150.833 198.154 150.757 198.647C150.759 199.441 150.161 199.533 149.36 199.642C148.84 199.786 148.392 200.119 148.105 200.576C147.818 201.033 147.713 201.581 147.809 202.112C147.907 202.887 147.613 202.552 146.803 203.614C146.492 204.024 146.864 204.096 145.982 202.656C144.105 199.587 140.515 195.476 138.683 191.979C137.14 189.039 137.24 186.243 141.344 181.709C142.478 180.454 141.929 180.425 148.409 180.896Z" fill="#EAAC3B"/>
<path d="M132.908 171.209C138.309 176.431 140.516 174.002 139.874 175.228C139.702 175.556 137.292 175.109 134.85 173.736C133.215 172.819 133.319 172.488 130.643 170.986C130.321 170.805 130.302 170.995 129.138 169.903C128.46 169.268 129.12 168.385 130.767 169.472C131.533 169.984 132.25 170.565 132.908 171.209Z" fill="#964B00"/>
<path d="M137.069 175.684C139.163 176.336 140.316 176.166 139.753 176.601C138.948 176.677 138.138 176.654 137.339 176.532C133.996 175.786 134.489 176.555 129.762 172.616C129.144 172.101 129.202 171.837 129.252 171.733C129.358 171.511 129.787 171.536 130.012 171.624C132.447 172.562 133.264 174.504 137.069 175.684Z" fill="#964B00"/>
<path d="M140.548 181.081C138.803 182.742 137.562 184.862 136.967 187.197C136.866 187.811 136.804 188.007 136.175 187.313C135.526 186.693 135.009 185.948 134.654 185.124C134.299 184.299 134.115 183.411 134.111 182.513C134.151 179.39 134.188 178.698 134.761 178.912C135.168 179.064 139.123 180.019 139.979 180.286C141.047 180.613 141.242 180.372 140.548 181.081Z" fill="#313131"/>
<path d="M154.116 214.066C154.982 215.317 158.89 219.174 158.341 219.627C154.847 222.503 151.444 225.47 150.516 226.41C149.838 227.098 149.725 227.187 149.456 226.886C145.672 222.627 149.307 226.887 138.597 213.62C137.281 211.989 137.697 213.438 141.765 209.13C143.08 207.817 144.482 206.595 145.962 205.471C146.908 204.657 147.633 208.789 149.102 209.287C151.406 210.071 150.434 208.727 154.116 214.066Z" fill="#FFF59E"/>
<path d="M156.568 225.962C156.618 225.477 158.048 224.956 158.248 227.097C158.467 229.462 158.519 229.861 157.666 229.867C156.877 229.866 156.089 229.825 155.304 229.744C154.243 229.641 153.398 228.819 154.155 227.699C154.507 227.176 155.081 227.368 155.795 227.535C156.712 227.751 156.463 226.987 156.568 225.962Z" fill="#FF9C9F"/>
<path d="M175.065 257.227C171.585 256.127 167.256 250.831 164.839 247.784C153.789 233.853 141.151 218.706 129.658 204.952C113.737 185.887 93.643 163.317 83.3567 150.917C71.2086 136.275 65.6034 130.041 62.7008 125.71C61.2768 123.809 60.3015 121.611 59.848 119.28C59.3946 116.949 59.4746 114.545 60.0823 112.249C57.5341 114.723 57.8372 120.513 58.2435 121.849C59.1849 124.396 60.5734 126.755 62.3438 128.814C62.9106 129.548 136.415 216.276 136.415 216.276C142.881 223.808 143.447 225.976 145.068 226.304C146.407 226.666 147.598 227.439 148.475 228.513C149.434 229.476 149.834 231.612 150.079 232.78C166.346 252.42 170.148 259.628 177.572 258.985C178.863 258.798 180.133 258.489 181.366 258.061C180.691 257.649 180.538 258.957 175.065 257.227Z" fill="#E0E0E0"/>
<path d="M80.3 125.664C81.9945 125.179 83.8114 125.373 85.3652 126.205C86.9189 127.037 88.0873 128.442 88.6224 130.121C89.1997 132.002 81.8841 133.035 82.675 138.363C82.7665 138.98 78.825 139.001 76.3291 135.107C75.852 134.244 75.5767 133.284 75.5239 132.3C75.4712 131.315 75.6423 130.331 76.0245 129.422C76.4067 128.513 76.99 127.703 77.7306 127.052C78.4711 126.401 79.3496 125.926 80.3 125.664ZM84.4487 129.549C82.0881 125.42 76.2518 128.644 78.3949 132.649C80.6551 136.873 86.747 133.567 84.4487 129.549Z" fill="#E3F0FF"/>
<path d="M142.018 225.214C143.14 226.427 141.796 225.485 136.777 225.674C133.591 225.795 133.275 226.875 134.308 225.381C135.65 223.284 136.374 220.851 136.396 218.361C137.093 218.986 141.374 224.518 142.018 225.214Z" fill="#964B00"/>
<path d="M130.965 211.821C135.429 214.411 135.679 219.737 133.313 224.274C132.152 226.498 127.21 227.315 124.563 227.403C121.993 227.412 119.434 227.043 116.971 226.308C114.331 225.795 112.695 226.43 108.634 221.562C106.862 216.779 107.435 216.135 108.693 210.89C108.931 209.894 109.75 207.761 110.695 208.159C112.441 208.779 114.341 208.812 116.107 208.255C117.777 207.852 118.133 205.331 121.88 205.561C125.721 205.796 125.837 205.587 126.276 206.142C126.788 206.78 128.466 208.895 128.636 209.218C128.536 209.21 125.258 208.475 125.143 208.443C123.577 207.822 121.928 207.436 120.249 207.298C119.265 207.21 119.18 208.201 120.331 208.367C121.953 208.594 123.421 209.483 126.753 210.187C128.235 210.505 129.656 211.057 130.965 211.821ZM129.814 213.202C130.02 211.783 128.255 211.102 127.014 210.988C121.636 210.499 117.043 208.698 114.998 213.689C113.902 216.362 113.133 218.579 114.48 220.86C115.876 223.223 123 225.55 124.495 225.737C125.147 225.865 125.823 225.731 126.376 225.363C126.93 224.995 127.315 224.423 127.449 223.772C127.794 221.905 127.159 220.914 127.498 219.424C128.41 215.414 129.521 215.22 129.815 213.205L129.814 213.202Z" fill="#964B00"/>
<path d="M86.6738 133.329C83.9219 134.814 81.7762 140.308 85.6378 137.781C86.4723 137.357 88.5056 135.599 87.94 134.755C87.1976 133.65 87.6925 132.779 86.6738 133.329Z" fill="#FFFBE1"/>
<path d="M83.5708 129.913C81.9588 127.121 77.6368 129.372 79.2277 132.202C79.3735 132.494 79.5764 132.755 79.8245 132.969C80.0725 133.182 80.3607 133.344 80.672 133.444C80.9834 133.544 81.3117 133.581 81.6377 133.553C81.9636 133.525 82.2806 133.432 82.57 133.279C82.8595 133.127 83.1155 132.918 83.3231 132.665C83.5307 132.412 83.6857 132.12 83.7789 131.807C83.8721 131.493 83.9018 131.164 83.866 130.839C83.8303 130.514 83.7299 130.199 83.5708 129.913Z" fill="#FFFBE1"/>
<path d="M120.732 199.305C122.421 201.864 116.471 206.805 115.612 206.959C114.079 207.354 112.464 207.291 110.966 206.778C109.725 206.117 109.211 206.147 109.563 205.739C110.368 204.8 109.66 203.427 109.988 200.866C110.689 195.45 114.268 194.163 111.986 191.838C110.248 190.066 105.425 190.145 104.394 191.137C101.562 193.865 101.755 199.39 101.614 199.377C100.289 199.282 99.9797 195.011 100.247 193.517C100.977 189.434 101.07 189.032 101.34 188.626C102.868 186.312 104.018 184.429 106.556 183.707C107.295 183.498 106.94 183.007 114.094 191.503C115.841 193.578 117.953 195.995 120.732 199.305Z" fill="#964B00"/>
<path d="M88.3554 161.892C106.08 181.883 105.606 181.179 104.764 181.067C95.1136 179.728 88.0244 177.369 84.6678 174.167C81.7571 171.394 81.1626 168.108 82.6804 165.268C83.6072 163.847 84.9723 162.767 86.5685 162.192C88.1224 161.61 88.1039 161.607 88.3554 161.892Z" fill="#964B00"/>
<path d="M189.373 178.299C192.627 177.871 192.514 178.625 190.452 175.207C190.067 174.57 189.716 175.031 189.373 175.633C188.994 176.3 188.865 176.022 187.884 175.613C185.508 174.621 187.385 178.716 183.966 177.703C183.746 177.653 183.517 177.651 183.296 177.697C183.074 177.743 182.865 177.836 182.683 177.97C182.501 178.104 182.349 178.276 182.239 178.473C182.129 178.671 182.062 178.89 182.044 179.115C181.956 180.641 179.888 180.24 179.381 180.206C178.897 180.177 178.962 180.06 177.647 181.171C177.283 181.479 177.54 181.873 178.181 183.028C178.583 183.755 180.767 182.487 181.184 182.174C182.985 180.977 184.95 180.048 187.018 179.415C188.056 178.972 189.012 178.345 189.373 178.299Z" fill="white"/>
<path d="M156.505 196.28C156.281 195.55 156.288 195.546 155.513 195.674C153.76 195.97 156.308 197.506 152.972 197.722C151.728 197.799 151.731 198.42 151.602 199.128C151.203 201.304 148.369 199.439 148.71 202.304C148.739 202.587 148.675 202.872 148.526 203.115C148.377 203.358 148.153 203.546 147.888 203.649C147.656 203.828 147.485 204.073 147.396 204.351C147.307 204.63 147.304 204.928 147.389 205.208C147.673 205.852 148.698 207.652 148.87 206.973C150.175 201.816 150.597 202.09 156.8 198.636C157.365 198.322 157.152 198.376 156.505 196.28Z" fill="white"/>
<path d="M236.668 192.922C238.137 194.893 243.215 202.074 240.002 207.529C236.972 212.669 232.366 215.485 216.221 229.069C185.822 254.647 182.019 263.134 170.255 251.959C168.979 250.742 150.699 228.297 150.715 228.282C150.53 228.019 150.324 227.854 150.611 227.606C157.563 221.543 217.532 170.889 217.551 170.907C224.293 177.916 230.674 185.264 236.668 192.922ZM220.313 221.385C221.297 220.43 220.492 219.024 219.197 219.864C219.079 219.685 208.652 229.158 199.48 236.597C198.08 237.732 198.837 239.259 199.833 238.899C200.659 238.604 220.289 221.408 220.313 221.385ZM182.373 220.685C182.536 220.334 181.866 219.489 181.16 220.72C180.897 221.29 180.436 221.746 179.863 222.004C179.534 222.131 179.287 222.494 178.957 222.603C177.877 222.963 177.777 224.016 177.266 224.259C176.162 224.784 176.594 225.574 175.82 225.667C175.225 225.74 174.888 225.929 173.504 227.677C172.698 228.695 171.845 228.559 171.399 229.434C170.849 230.516 170.104 230.131 169.68 231.247C169.417 231.94 169.327 232.421 168.656 232.554C167.179 232.852 167.36 233.826 165.871 234.591C164.583 235.253 165.151 236.142 164.208 236.317C163.265 236.492 163.654 237.341 162.44 237.782C162.304 237.822 162.173 237.876 162.049 237.945C161.95 238.046 161.886 238.176 161.866 238.316C161.847 238.456 161.873 238.599 161.94 238.723C162.235 239.107 162.71 238.645 162.988 238.575C164.149 238.28 163.955 237.416 164.839 237.097C166.081 236.65 165.322 235.923 166.691 235.295C167.835 234.769 167.805 233.753 169.168 233.435C170.804 233.063 170.044 231.729 171.334 231.014C172.26 230.5 172.128 229.909 172.929 229.509C173.972 228.855 174.869 227.993 175.563 226.976C176.123 226.348 176.562 227.219 177.372 225.665C177.656 225.12 178.011 225.385 178.753 224.187C179.59 222.856 180.898 223.851 182.373 220.685ZM168.177 227.593C168.718 227.235 169.138 226.846 168.712 226.302C168.325 225.809 167.581 226.668 167.331 226.812C166.252 227.457 166.692 228.138 165.791 228.529C165.034 228.859 165.491 229.592 164.394 229.661C163.01 229.744 163.725 231.725 164.381 231.557C164.501 231.515 164.599 231.426 164.654 231.311C164.708 231.196 164.715 231.064 164.673 230.944C164.578 230.679 164.647 230.723 165.64 230.442C166.398 229.493 166.167 229.602 166.665 229.266C167.626 228.617 167.178 228.252 168.173 227.595L168.177 227.593ZM158.625 225.184C158.505 224.912 158.298 224.687 158.036 224.546C157.774 224.404 157.473 224.354 157.179 224.403C156.975 224.4 156.772 224.437 156.583 224.514C156.394 224.591 156.222 224.705 156.078 224.85C155.934 224.995 155.822 225.168 155.747 225.358C155.671 225.548 155.636 225.751 155.641 225.956C155.652 226.691 155.499 226.289 154.899 226.384C154.648 226.391 154.402 226.452 154.176 226.56C153.949 226.669 153.749 226.825 153.586 227.016C153.332 227.247 153.142 227.539 153.033 227.865C152.925 228.191 152.902 228.539 152.967 228.876C153.033 229.213 153.183 229.528 153.405 229.79C153.627 230.052 153.913 230.252 154.235 230.372C155.475 230.755 156.785 230.856 158.069 230.668C158.904 230.537 159.343 230.346 159.222 229.506C159.31 228.04 159.106 226.572 158.621 225.186L158.625 225.184ZM161.961 233.578C162.482 232.772 161.784 232.143 161.132 232.886C160.434 233.686 159.924 233.109 159.856 233.965C159.819 234.437 159.879 234.222 159.736 234.563C159.505 234.411 159.271 234.34 159.379 233.714C159.496 233.05 158.84 233.078 158.558 233.284C158.185 233.555 158.328 233.733 158.59 234.775C158.793 235.018 158.929 235.193 159.077 235.353C159.195 235.528 159.367 235.66 159.567 235.728C159.768 235.796 159.985 235.796 160.185 235.729C160.386 235.662 160.559 235.531 160.678 235.356C160.797 235.182 160.855 234.973 160.844 234.761C160.857 234.146 161.451 234.362 161.957 233.581L161.961 233.578Z" fill="white"/>
<path d="M110.529 195.161C111.275 194.046 111.778 193.14 110.787 192.453C109.837 191.799 109.393 191.988 108.053 191.808C104.991 191.394 104.625 192.785 103.99 194.314C103.301 195.965 102.456 199.9 103.186 201.164C104.327 202.446 108.349 206.605 108.652 204.853C108.798 204.001 107.786 199.254 110.529 195.161Z" fill="#FFE8E1"/>
<path d="M127.919 214.486C128.717 212.809 128.616 212.616 127.906 212.443C126.223 212.1 124.519 211.867 122.806 211.746C119.422 211.729 117.11 211.168 115.893 214.878C113.94 220.799 115.338 221.318 122.902 224.087C124.661 224.731 126.257 224.893 126.287 222.991C126.329 220.388 125.213 220.165 127.919 214.486Z" fill="#FFE8E1"/>
<path d="M142.254 227.385C142.426 227.009 142.153 226.975 141.028 226.917C134.645 226.593 131.884 226.544 132.222 232.929C132.395 236.181 133.753 236.551 136.109 236.555C137.87 236.568 139.631 236.506 141.387 236.372C143.034 236.246 139.82 232.708 142.254 227.385Z" fill="#FFE8E1"/>
<path d="M220.219 177.996C221.922 179.968 221.179 179.749 219.741 179.777C219.438 179.783 219.086 179.812 218.682 179.788C217.734 179.732 217.901 180.315 217.887 180.677C217.855 181.661 218.097 183.577 217.027 182.885C215.547 181.639 214.216 180.227 213.058 178.677C211.985 177.352 213.01 177.15 215.492 174.766C216.965 173.356 217.305 174.622 220.219 177.996ZM219.329 178.892C219.719 178.885 219.622 178.616 219.352 178.341C219.02 178.003 217.394 176.035 216.708 175.387C216.532 175.221 216.324 175.218 215.813 175.685C213.815 177.504 213.391 177.513 213.88 178.131C214.139 178.461 214.52 179.009 216.473 181.169C216.553 181.257 217.002 181.838 217.048 181.256C217.144 180.199 216.798 179.295 217.711 179.102C218.243 178.983 218.784 178.912 219.329 178.892Z" fill="#000001"/>
<path d="M229.038 197.715C228.628 198 228.127 198.121 227.632 198.057C227.138 197.993 226.684 197.746 226.361 197.366C226.051 197.044 225.848 196.633 225.782 196.19C225.715 195.748 225.787 195.295 225.989 194.896C226.19 194.496 226.511 194.169 226.906 193.96C227.302 193.75 227.753 193.669 228.197 193.726C228.64 193.784 229.055 193.978 229.384 194.282C229.712 194.586 229.939 194.985 230.031 195.422C230.123 195.86 230.077 196.316 229.9 196.727C229.722 197.138 229.421 197.483 229.038 197.715ZM228.654 197.035C228.82 196.955 228.968 196.843 229.088 196.704C229.209 196.566 229.301 196.404 229.357 196.229C229.413 196.054 229.433 195.869 229.415 195.686C229.397 195.503 229.342 195.326 229.253 195.165C229.165 195.004 229.044 194.863 228.899 194.75C228.753 194.637 228.587 194.555 228.409 194.509C228.231 194.463 228.045 194.454 227.864 194.482C227.682 194.511 227.508 194.576 227.352 194.674C227.186 194.753 227.039 194.865 226.918 195.004C226.797 195.142 226.706 195.304 226.649 195.479C226.593 195.654 226.574 195.839 226.591 196.022C226.609 196.205 226.664 196.382 226.753 196.543C226.842 196.704 226.962 196.846 227.107 196.958C227.253 197.071 227.419 197.153 227.597 197.199C227.775 197.245 227.961 197.254 228.143 197.226C228.324 197.198 228.498 197.133 228.654 197.035Z" fill="#000001"/>
<path d="M225.766 192.337C232.195 188.429 237.539 198.169 231.302 201.543C225.396 205.165 220.019 195.828 225.766 192.337ZM232.962 195.874C232.812 195.16 232.495 194.492 232.036 193.925C231.577 193.358 230.989 192.908 230.322 192.613C229.412 192.258 228.41 192.212 227.47 192.481C226.531 192.751 225.706 193.321 225.122 194.105C224.538 194.889 224.227 195.843 224.237 196.82C224.248 197.797 224.579 198.744 225.18 199.515C225.529 200.064 226.002 200.524 226.561 200.858C227.119 201.191 227.748 201.389 228.398 201.436C229.272 201.481 228.62 200.462 229.202 199.069C229.486 198.412 229.943 197.844 230.524 197.426C231.105 197.008 231.789 196.755 232.503 196.695C232.866 196.64 233.035 196.342 232.962 195.874ZM232.921 198.21C232.948 198.149 232.96 198.082 232.956 198.016C232.952 197.949 232.932 197.884 232.898 197.827C232.863 197.769 232.816 197.721 232.759 197.686C232.702 197.651 232.637 197.63 232.57 197.625C232.18 197.649 231.797 197.749 231.446 197.921C231.094 198.093 230.779 198.332 230.52 198.626C230.261 198.919 230.062 199.261 229.935 199.631C229.808 200.001 229.756 200.393 229.781 200.784C229.805 201.199 231.04 200.847 231.966 199.883C232.416 199.411 232.743 198.837 232.921 198.21Z" fill="#000001"/>
<path d="M216.538 203.16C219.181 205.454 222.686 207.629 220.208 210.097C217.817 212.479 214.88 215.749 212.705 214.259C211.347 212.979 210.259 211.44 209.504 209.733C209.281 209.415 209.164 209.034 209.172 208.646C209.179 208.258 209.31 207.882 209.545 207.573C209.829 207.164 209.831 207.093 209.625 206.828C207.876 204.583 210.85 201.396 213.465 202.795C214.967 203.599 215.205 202 216.538 203.16ZM219.416 209.355C220.597 208.082 219.627 207.166 218.255 205.976C215.701 203.758 215.591 203.559 214.829 204.17C209.624 208.339 209.494 208.196 211.514 211.326C213.596 214.532 214.424 214.729 219.414 209.352L219.416 209.355ZM211.911 205.116C213.284 203.928 213.378 204.009 213.014 203.802C211.477 202.934 209.773 204.794 210.147 205.636C210.574 206.604 210.829 206.048 211.911 205.116Z" fill="#000001"/>
<path d="M215.996 205.502C216.2 205.842 216.326 206.222 216.365 206.616C216.405 207.01 216.356 207.408 216.223 207.781C216.091 208.154 215.877 208.493 215.597 208.774C215.318 209.054 214.98 209.27 214.607 209.404C211.126 210.532 211.569 208.008 212.532 208.47C213.235 208.807 215.272 208.616 215.389 207.092C215.356 206.655 215.271 206.224 215.136 205.807C215.113 205.698 215.131 205.584 215.185 205.487C215.24 205.39 215.328 205.316 215.433 205.279C215.538 205.242 215.653 205.244 215.756 205.285C215.86 205.326 215.945 205.403 215.996 205.502Z" fill="#000001"/>
<path d="M153.515 100.532C154.172 101.625 152.675 102.02 152.215 101.545C151.017 100.317 152.882 99.4777 153.515 100.532Z" fill="#000001"/>
<path d="M219.193 219.866C220.487 219.025 221.292 220.432 220.308 221.386C220.289 221.407 200.658 238.602 199.829 238.9C198.832 239.259 198.076 237.733 199.475 236.599C208.648 229.16 219.075 219.686 219.193 219.866Z" fill="#000001"/>
<path d="M151.142 102.346C151.22 102.444 151.276 102.558 151.307 102.68C151.338 102.801 151.343 102.928 151.322 103.052C151.301 103.175 151.254 103.293 151.184 103.397C151.115 103.502 151.024 103.59 150.918 103.657C150.812 103.724 150.693 103.768 150.569 103.787C150.445 103.805 150.318 103.797 150.197 103.763C150.077 103.729 149.964 103.67 149.868 103.59C149.771 103.51 149.693 103.41 149.637 103.298C149.559 103.2 149.503 103.086 149.472 102.964C149.441 102.843 149.436 102.716 149.457 102.592C149.478 102.469 149.525 102.351 149.595 102.247C149.664 102.142 149.755 102.054 149.861 101.987C149.967 101.92 150.086 101.876 150.21 101.857C150.334 101.839 150.461 101.847 150.581 101.881C150.702 101.915 150.815 101.974 150.911 102.054C151.008 102.134 151.086 102.234 151.142 102.346Z" fill="#000001"/>
<path d="M148.037 104.023C149.278 104.069 148.903 106.183 147.707 105.931C146.62 105.706 147.01 103.986 148.037 104.023Z" fill="#000001"/>
<path d="M226.236 243.116C226.942 243.388 227.101 244 226.883 244.237C224.736 246.569 217.536 234.027 218.667 233.726C219.942 233.044 219.702 235.246 224.32 241.583C224.797 242.268 225.462 242.801 226.236 243.116Z" fill="#000001"/>
<path d="M124.658 67.6893C125.591 68.1016 125.384 73.3367 125.778 77.0258C125.825 77.4779 125.594 77.5974 125.223 77.7885C124.967 77.9533 124.747 77.7365 124.39 77.4519C123.492 76.7347 122.228 75.1661 121.816 75.1481C120.775 75.3305 119.871 75.5004 118.115 75.7097C118.007 75.6957 117.904 75.6535 117.817 75.5872C117.731 75.5209 117.663 75.4329 117.621 75.3321C117.579 75.2313 117.565 75.1213 117.579 75.0131C117.594 74.9049 117.636 74.8025 117.703 74.7161C119.482 72.49 121.374 70.3571 123.372 68.3259C123.841 67.9078 124.331 67.5389 124.658 67.6893ZM124.631 69.2359C124.628 69.2175 124.619 69.2005 124.606 69.1875C124.593 69.1745 124.576 69.1662 124.557 69.1639C124.539 69.1617 124.52 69.1656 124.504 69.175C124.488 69.1845 124.476 69.199 124.469 69.2162C124.436 69.3037 122.714 74.0153 122.665 74.1783C122.534 74.6089 122.612 74.6653 122.793 74.8372C123.673 75.8238 124.343 76.398 124.767 76.8059C124.778 76.8155 124.79 76.8219 124.804 76.8244C124.818 76.8268 124.833 76.8252 124.846 76.8196C124.859 76.8141 124.87 76.8049 124.878 76.7931C124.886 76.7814 124.89 76.7676 124.89 76.7535C124.892 75.809 124.692 72.1672 124.69 70.009C124.686 69.7503 124.666 69.4922 124.631 69.2359ZM123.826 69.202C123.9 68.9831 124.298 68.2581 123.167 69.511C121.823 71.0126 120.504 72.5374 119.213 74.0849C118.649 74.7743 118.758 74.8716 118.941 74.8417C121.702 74.3933 121.57 74.9934 122.83 71.7773C123.108 71.0656 123.492 70.1853 123.826 69.202Z" fill="#000001"/>
<path d="M160.164 140.089C160.565 139.819 160.763 140.26 161.24 140.899C163.42 146.605 162.413 144.277 164.135 147.309C164.471 147.892 163.82 150.276 160.916 142.262C160.249 140.415 159.752 140.367 160.164 140.089Z" fill="#000001"/>
<path d="M204.385 218.691C205.128 219.361 205.696 220.202 206.04 221.141C206.135 221.475 206.141 221.827 206.057 222.163C205.974 222.499 205.804 222.807 205.564 223.057C204.138 224.492 202.634 225.848 201.059 227.119C199.607 228.323 198.298 227.398 197.112 226.011C196.056 224.774 195.179 224.228 194.441 223.15C193.858 222.3 194.342 221.041 194.832 220.368C195.771 219.077 198.955 215.954 200.55 215.793C201.764 215.671 202.29 216.741 204.385 218.691ZM203.273 223.734C205.094 221.68 206.565 222.14 202.609 218.266C202.531 218.191 202.329 217.902 201.989 218.095C200.76 218.791 196.993 222.911 196.206 223.512C195.944 223.712 196.213 223.88 196.557 224.197C197.608 225.165 198.454 226.376 199.278 226.635C199.496 226.688 199.724 226.677 199.935 226.602C200.146 226.528 200.332 226.394 200.468 226.216C201.313 225.291 202.434 224.678 203.273 223.734ZM200.41 218.278C201.417 217.342 201.657 217.352 201.367 217.025C201.102 216.727 200.498 216.498 199.606 217.013C198.714 217.528 199.006 217.601 199.845 218.232C199.918 218.306 200.015 218.351 200.119 218.359C200.222 218.368 200.325 218.339 200.41 218.278ZM197.955 220.426C199.23 219.176 199.725 219.168 198.543 218.344C198.43 218.266 198.514 218.279 198.194 218.272C196.46 219.804 196.615 219.506 197.645 220.442C197.752 220.539 197.846 220.539 197.955 220.426ZM195.672 222.867C197.344 221.081 197.487 221.378 196.289 220.438C195.867 220.109 195.313 220.915 195.123 221.667C194.933 222.42 195.051 223.298 195.672 222.867Z" fill="#000001"/>
<path d="M152.814 136.078C153.053 136.428 152.877 136.812 152.026 136.544C150.578 136.092 147.423 135.917 145.396 135.385C144.384 135.12 141.244 133.896 140.803 132.947C143.038 133.137 142.708 134.188 147.247 134.869C150.728 135.391 151.242 135.216 152.814 136.078Z" fill="#000001"/>
<path d="M199.383 221.43C202.144 220.112 202.163 220.254 201.373 223.3C201.108 224.312 199.899 222.933 199.489 222.605C198.957 222.18 198.989 221.651 199.383 221.43Z" fill="#000001"/>
<path d="M115.201 76.6103C117.594 78.2017 116.77 81.2805 116.48 84.4017C116.453 84.6445 116.334 84.8677 116.147 85.0252C115.96 85.1828 115.72 85.2628 115.477 85.2486C114.015 84.8797 112.492 85.1189 111.031 84.761C107.375 83.8649 107.346 79.9601 109.847 79.0906C111.1 78.6531 111.378 79.2514 111.313 78.7281C111.077 76.8551 113.607 75.5494 115.201 76.6103ZM115.445 78.3468C114.62 76.638 112.336 77.1223 112.423 78.8404C112.585 82.0084 110.754 78.4161 109.374 80.7522C109.209 81.0423 109.129 81.3738 109.146 81.7074C109.163 82.041 109.275 82.3628 109.469 82.6348C109.76 83.5807 111.679 83.7727 112.664 83.8586C115.576 84.1105 115.455 84.1216 115.482 83.7794C115.782 80.3659 116.069 79.6359 115.445 78.3468Z" fill="#000001"/>
<path d="M153.207 142.745C153.74 143.918 152.379 143.583 152.135 143.617C149.866 143.96 149.738 145.001 147.603 145.003C146.968 145.002 146.385 144.878 146.487 144.251C146.563 143.769 147.323 143.995 148.024 143.837C149.844 143.428 151.779 141.774 153.207 142.745Z" fill="#000001"/>
<path d="M112.408 78.7708C112.318 77.0056 114.665 76.5087 115.514 78.266C116.155 79.5903 115.855 80.3433 115.553 83.8452C115.521 84.1988 115.646 84.188 112.655 83.9275C111.643 83.8405 109.674 83.6443 109.373 82.6723C109.174 82.3928 109.059 82.0621 109.042 81.7194C109.025 81.3768 109.106 81.0363 109.276 80.7382C110.694 78.3342 112.573 82.0247 112.408 78.7708Z" fill="white"/>
<path d="M152.493 145.787C152.924 145.888 152.672 146.437 152.301 147.438C151.346 150.02 151.455 150.933 150.904 151.016C150.639 151.084 150.363 151.092 150.094 151.039C149.826 150.986 149.573 150.873 149.354 150.709C149.131 150.487 149.226 150.076 149.3 149.738C149.54 148.756 149.858 147.794 150.252 146.862C150.357 146.548 150.372 146.134 150.705 146.071C151.287 145.9 151.888 145.805 152.493 145.787Z" fill="white"/>
<path d="M155.778 156.122C155.842 156.672 156.041 157.32 155.537 157.441C154.995 157.57 154.988 156.658 154.735 157.291C153.651 160.004 152.536 165.567 149.36 164.796C147.842 164.428 143.983 161.553 142.897 161.225C142.872 161.374 142.859 161.526 142.856 161.678C142.881 162.149 142.168 162.402 142.052 161.802C141.571 159.337 143.303 158.426 143.074 159.852C142.962 160.566 143.722 160.231 144.413 159.905C147.896 158.261 155.01 156.77 153.858 155.983C153.035 155.419 154.282 154.355 155.778 156.122ZM153.305 157.836C153.066 157.88 153.315 157.771 152.066 158.292C150.009 159.15 146.054 160.01 144.798 160.805C144.319 161.108 145.708 161.61 146.254 161.447C151.007 160.03 153.547 159.452 153.309 157.841L153.305 157.836ZM151.767 161.953C150.815 161.546 150.481 161.613 149.184 162.175C148.478 162.687 147.952 162.945 148.459 163.205C149.568 163.776 150.529 164.499 151.77 161.958L151.767 161.953Z" fill="#000001"/>
<path d="M152.068 158.296C153.318 157.775 153.069 157.884 153.308 157.84C153.546 159.45 151.006 160.028 146.256 161.451C145.711 161.614 144.321 161.112 144.8 160.809C146.057 160.014 150.012 159.154 152.068 158.296Z" fill="white"/>
<path d="M148.29 152.932C148.375 152.855 148.485 152.81 148.6 152.805C148.715 152.8 148.828 152.835 148.92 152.904C149.012 152.974 149.077 153.073 149.104 153.185C149.131 153.297 149.118 153.415 149.067 153.518C147.864 156.709 143.129 155.204 144.369 152.775C145.594 150.369 145.85 152.177 145.597 152.671C145.195 153.463 144.992 153.719 145.798 154.092C147.004 154.644 147.792 153.363 148.29 152.932Z" fill="#000001"/>
<path d="M108.343 87.1739C110.012 89.2931 109.749 89.7489 109.592 90.3044C109.377 91.0718 108.315 91.9083 105.415 94.2284C104.16 95.2303 103.372 94.9065 102.955 94.6222C101.536 93.644 100.309 92.4122 99.3376 90.9888C99.0967 90.7227 98.9294 90.3982 98.8526 90.0475C98.7757 89.6968 98.7918 89.3321 98.8993 88.9896C99.4971 87.2599 102.049 85.2695 103.76 84.4935C104.19 84.2759 104.681 84.2134 105.152 84.3166C105.622 84.4197 106.042 84.6823 106.341 85.0597C107.064 85.7098 107.733 86.4168 108.343 87.1739ZM108.234 90.457C108.356 90.3439 108.454 90.2078 108.523 90.0565C108.592 89.9053 108.631 89.742 108.636 89.5758C108.642 89.4097 108.615 89.2441 108.556 89.0886C108.497 88.9331 108.409 88.7906 108.295 88.6695C106.634 86.3626 105.612 85.4045 104.709 85.2987C103.545 85.1664 102.755 86.0877 101.481 87.148C100.485 87.9783 99.8961 88.5287 99.7956 89.188C99.5728 90.6397 101.284 91.9997 102.826 93.4449C103.077 93.6818 103.405 93.8201 103.75 93.8345C104.095 93.8489 104.434 93.7384 104.704 93.5233C105.971 92.6101 107.153 91.5838 108.234 90.457Z" fill="#000001"/>
<path d="M192.361 232.852C193.155 232.822 193.262 233.813 192.427 233.899C189.961 234.156 190.145 233.682 189.804 234.697C189.593 235.365 189.195 235.957 188.655 236.403C188.116 236.849 187.459 237.129 186.764 237.21C186.069 237.291 185.365 237.169 184.738 236.858C184.111 236.548 183.587 236.063 183.229 235.462C182.829 234.772 182.655 233.974 182.731 233.181C182.807 232.387 183.128 231.636 183.651 231.034C184.099 230.573 184.661 230.238 185.281 230.064C185.9 229.89 186.555 229.884 187.178 230.045C187.8 230.206 188.369 230.53 188.827 230.982C189.284 231.435 189.613 232 189.781 232.621C189.934 233.19 190.131 232.929 192.361 232.852ZM188.664 232.35C188.493 232.04 188.261 231.767 187.983 231.548C187.705 231.329 187.385 231.167 187.044 231.073C186.703 230.979 186.346 230.953 185.995 230.999C185.643 231.044 185.304 231.159 184.998 231.336C181.731 233.014 184.563 237.673 187.622 235.901C188.22 235.557 188.662 234.996 188.856 234.335C189.05 233.673 188.982 232.962 188.664 232.35Z" fill="#000001"/>
<path d="M140.411 146.259C141.806 144.826 142.705 147.256 139.501 148.032C137.885 148.423 137.326 148.299 136.224 149.637C135.961 149.958 135.816 150.419 135.36 150.192C134.34 149.68 136.312 148.067 136.784 147.636C139.468 146.829 139.847 146.839 140.411 146.259Z" fill="#000001"/>
<path d="M104.701 88.4634C105.532 87.7113 106.162 87.1902 106.227 88.3624C106.234 88.4775 106.107 88.6124 106.014 88.7174C105.526 89.2683 104.859 89.2856 105.739 89.9C106.216 90.2302 106.651 90.7569 106.218 91.0757C105.463 91.6287 104.749 89.9078 104.092 90.331C103.77 90.664 103.417 90.9667 103.039 91.2353C102.592 91.5494 102.137 90.8856 102.473 90.5027C103.897 88.8889 103.593 89.6827 102.668 88.7149C102.127 88.1496 102.583 87.5139 103.285 87.9524C104.297 88.5777 104.222 88.8988 104.701 88.4634Z" fill="#000001"/>
<path d="M181.162 220.722C181.868 219.491 182.537 220.336 182.375 220.688C180.9 223.853 179.592 222.859 178.763 224.205C178.022 225.402 177.666 225.137 177.382 225.682C176.575 227.235 176.133 226.366 175.574 226.994C174.88 228.011 173.983 228.873 172.94 229.527C172.134 229.929 172.27 230.518 171.344 231.031C170.052 231.749 170.809 233.08 169.178 233.453C167.816 233.766 167.843 234.783 166.701 235.313C165.333 235.941 166.091 236.667 164.849 237.115C163.965 237.433 164.159 238.298 162.998 238.593C162.721 238.663 162.246 239.125 161.951 238.741C161.883 238.617 161.857 238.474 161.877 238.334C161.896 238.193 161.96 238.063 162.06 237.962C162.183 237.894 162.314 237.839 162.45 237.8C163.664 237.358 163.28 236.51 164.219 236.335C165.157 236.16 164.594 235.271 165.881 234.609C167.37 233.842 167.189 232.869 168.667 232.571C169.336 232.436 169.426 231.954 169.69 231.264C170.114 230.148 170.859 230.534 171.41 229.451C171.856 228.577 172.703 228.716 173.514 227.695C174.899 225.946 175.235 225.758 175.83 225.685C176.606 225.588 176.171 224.799 177.277 224.277C177.788 224.033 177.892 222.978 178.968 222.62C179.3 222.511 179.543 222.145 179.874 222.022C180.446 221.759 180.904 221.297 181.162 220.722Z" fill="#000001"/>
<path d="M139.088 150.226C140.928 149.918 140.276 149.505 138.783 154.69C138.682 155.045 138.669 155.291 138.461 155.236C138.036 155.123 137.467 155.116 137.139 154.479C136.891 153.997 137.35 153.069 137.654 152.252C137.926 151.506 138.193 150.372 139.088 150.226Z" fill="white"/>
<path d="M128.072 144.932C127.36 138.537 133.998 136.844 130.362 140.25C127.13 143.279 130.236 148.566 131.103 151.798C131.204 152.179 130.67 152.502 130.468 151.988C128.859 147.901 128.276 146.768 128.072 144.932Z" fill="#000001"/>
<path d="M166.202 216.5C173.416 209.9 171.812 211.236 171.956 219.381C171.969 219.482 171.95 219.585 171.901 219.675C171.852 219.764 171.775 219.836 171.682 219.878C171.589 219.921 171.485 219.932 171.385 219.911C171.285 219.89 171.194 219.837 171.127 219.76C168.651 217.02 170.108 217.468 167.325 217.66C165.7 217.763 165.763 216.901 166.202 216.5ZM171.274 213.714C171.274 213.572 171.25 213.332 171.145 213.564C170.734 214.469 170.338 215.381 169.958 216.3C169.86 216.543 169.863 216.815 169.965 217.056C170.051 217.165 170.791 218.264 171.1 218.64C171.109 218.651 171.12 218.659 171.134 218.663C171.147 218.667 171.161 218.667 171.174 218.663C171.187 218.658 171.199 218.65 171.207 218.638C171.215 218.627 171.22 218.614 171.22 218.6C171.238 217.754 171.274 213.929 171.274 213.714ZM170.543 213.44C169.269 214.513 168.065 215.668 166.94 216.897C167.634 216.934 168.327 216.818 168.971 216.556C169.72 214.995 170.588 213.567 170.54 213.442L170.543 213.44Z" fill="#000001"/>
<path d="M132.18 157.428C132.93 157.163 132.516 165.275 136.158 167.885C138.196 169.344 132.496 170.416 131.864 158.109C131.842 157.676 131.88 157.536 132.18 157.428Z" fill="#000001"/>
<path d="M141.285 174.655C141.321 174.221 141.855 174.154 142.015 174.624C142.064 175.486 142.167 176.344 142.323 177.192C142.488 178.132 140.948 178.188 141.285 174.655Z" fill="#000001"/>
<path d="M291.841 226.181C291.345 226.107 281.331 218.442 281.161 218.3C271.118 209.91 271.698 212.092 264.433 195.947C256.096 177.421 248.714 169.319 241.704 157.338C238.181 151.313 239.108 151.307 229.67 144.182C225.26 140.858 218.146 136.915 213.754 131.88C211.562 129.365 210.917 128.012 209.426 126.151C206.046 121.845 201.404 118.704 196.15 117.167C193.44 116.58 190.963 115.208 189.028 113.221C187.067 111.354 185.018 108.138 181.716 103.921C176.622 97.4119 174.776 97.0661 172.911 98.668C172.348 99.1324 171.82 99.6385 171.333 100.182C167.618 104.287 169.409 109.498 169.519 110.802C153 92.5883 140.462 74.5907 132.04 66.3075C129.007 63.3252 127.308 62.2428 125.019 61.8918C118.46 60.8939 115.137 65.2249 111.877 67.7111C99.8537 76.8665 115.51 65.2803 70.2543 101.078C44.6925 121.298 57.072 122.637 86.9437 160.337C87.2916 160.774 87.086 160.718 85.9433 161.144C80.4821 163.177 79.3993 168.452 81.9878 172.935C86.0147 179.91 104.163 182.168 105.32 182.491C99.4328 186.354 99.6946 189.364 98.9757 193.047C98.4644 195.663 99.1851 199.322 101.257 201.036C102.929 202.94 104.761 204.697 106.734 206.288C107.263 206.609 107.832 206.858 108.427 207.028C109.605 207.581 107.807 206.888 106.88 212.177C106.627 213.629 105.293 216.187 106.538 219.901C107.195 221.905 108.408 223.68 110.035 225.02C111.663 226.359 113.638 227.209 115.73 227.468C117.651 227.595 117.355 228.298 124.29 228.72C124.319 228.723 124.606 228.772 124.394 228.962C122.006 231.138 120.629 241.247 126.67 244.989C139.79 253.114 140.918 247.963 151.505 253.637C167.084 261.984 170.644 262.173 177.708 264.21C182.59 265.921 187.727 266.793 192.901 266.79C193.7 266.811 211.141 268.251 225.151 272.368C226.719 272.83 227.076 272.104 226.691 271.564C225.777 270.263 212.81 267.971 211.886 267.797C193.631 264.43 192.574 267.141 174.79 261.983C155.164 256.288 152.203 250.505 143.453 249.171C140.096 248.798 136.784 248.095 133.564 247.073C125.177 243.775 124.825 241.764 123.757 237.481C123.519 235.567 123.722 233.624 124.351 231.8C124.629 230.907 125.137 230.103 125.824 229.468C126.511 228.833 127.353 228.39 128.265 228.183C132.024 227.378 132.287 227.032 131.776 228.081C130.898 230.529 130.876 233.202 131.715 235.663C132.671 238.165 137.239 237.698 139.891 237.631C142.104 237.575 142.204 237.485 142.785 237.021C143.269 236.634 143.036 235.72 142.806 234.694C142.521 233.505 142.407 232.281 142.468 231.06C142.662 229.942 142.998 228.853 143.469 227.82C143.743 227.077 144.29 227.323 145.313 227.629C149.082 228.755 150.648 235.614 146.033 238.867C143.394 240.381 140.553 241.509 137.595 242.22C134.741 243.021 132.328 243.501 132.572 244.166C132.682 244.463 132.831 244.645 133.532 244.49C139.349 243.188 149.165 240.835 149.928 235.349C150.38 232.082 163.909 256.487 173.64 259.858C181.471 262.569 185.312 257.258 206.967 239.122C220.755 227.582 217.328 228.518 219.464 231.182C224.421 237.362 226.218 238.415 229.64 240.719C234.649 244.093 234.669 243.643 234.969 243.152C235.539 242.215 228.735 239.206 224.989 235.312C224.149 234.438 218.744 228.895 219.704 228.12C219.724 228.108 234.055 216.355 238.176 212.518C245.2 205.973 242.89 198.914 238.254 192.374C236.651 190.116 212.16 162.158 212.143 162.139C207.769 157.25 197.775 144.853 194.67 141.035C188.055 132.906 174.635 117.054 173.178 115.009C171.916 113.368 171.028 111.47 170.578 109.449C169.93 106.056 170.14 103.139 172.714 100.558C174.028 99.2376 174.038 99.5653 174.302 99.9883C176.445 103.423 179.87 109.473 182.986 110.995C184.697 111.832 185.235 110.616 185.824 111.361C191.655 118.734 196.517 117.978 199.897 119.999C212.99 127.839 208.381 131.495 222.623 141.192C227.018 144.185 235.701 149.708 238.314 154.344C247.924 171.399 249.299 171.096 253.496 178.477C265.71 199.949 262.346 196.759 268.38 207.664C272.23 214.625 279.525 218.456 286.273 224.127C289.278 226.652 293.671 228.633 294.855 229.625C294.924 229.709 295.013 229.775 295.113 229.817C295.214 229.86 295.323 229.877 295.432 229.868C295.541 229.86 295.646 229.825 295.738 229.767C295.83 229.709 295.907 229.629 295.963 229.535C296.862 228.377 292.441 226.27 291.841 226.181ZM67.6533 104.883C67.6748 104.871 110.733 70.5364 114.082 67.6082C120.089 62.3527 123.289 63.2201 124.502 63.3834C127.026 63.7158 128.918 65.2005 131.208 67.3119C136.288 72.0024 141.809 79.847 149.364 89.166C159.789 102.027 159.838 101.256 159.281 101.758C154.952 105.652 137.155 119.79 134.307 122.261C125.253 130.351 96.8754 154.317 93.3849 156.889C92.8024 157.318 91.8815 158.451 90.9533 157.62C89.8759 156.654 87.6617 154.185 81.7125 146.959C67.3271 129.483 61.4219 124.423 60.9555 116.922C60.7136 113.048 62.3668 109.327 67.6533 104.883ZM84.6616 174.166C81.7514 171.395 81.1546 168.107 82.6742 165.268C83.601 163.847 84.966 162.767 86.5622 162.191C88.1168 161.62 88.0909 161.615 88.3467 161.897C106.093 181.876 105.606 181.179 104.764 181.068C95.1057 179.727 88.0257 177.364 84.6616 174.166ZM101.61 199.379C100.286 199.294 99.9743 195.014 100.242 193.519C100.971 189.437 101.065 189.035 101.336 188.628C102.864 186.314 104.014 184.433 106.552 183.71C107.29 183.501 106.936 183.008 114.09 191.505C115.837 193.581 117.95 195.999 120.728 199.309C122.417 201.868 116.467 206.809 115.608 206.963C114.075 207.358 112.46 207.295 110.962 206.782C109.721 206.12 109.208 206.151 109.559 205.743C110.364 204.803 109.656 203.431 109.984 200.87C110.685 195.454 114.266 194.165 111.982 191.841C110.244 190.07 105.42 190.148 104.39 191.14C101.562 193.866 101.753 199.387 101.614 199.377L101.61 199.379ZM124.33 203.72C124.945 204.654 125.08 204.676 124.414 204.642C120.35 204.434 120.615 204.605 121.051 204.058C122.655 202.039 122.107 201.133 122.608 201.703C124.509 203.869 124.356 203.701 124.33 203.72ZM103.185 201.166C102.455 199.902 103.299 195.966 103.99 194.316C104.626 192.79 104.991 191.395 108.052 191.81C109.391 191.989 109.838 191.8 110.786 192.455C111.777 193.142 111.275 194.047 110.528 195.163C107.785 199.256 108.799 204.002 108.651 204.854C108.348 206.607 104.325 202.446 103.185 201.166ZM124.562 227.404C121.992 227.414 119.434 227.045 116.97 226.31C114.33 225.795 112.694 226.432 108.633 221.564C106.862 216.78 107.431 216.136 108.692 210.892C108.93 209.895 109.749 207.763 110.694 208.161C112.44 208.78 114.34 208.814 116.106 208.256C117.776 207.853 118.132 205.333 121.879 205.563C125.72 205.798 125.836 205.588 126.275 206.144C126.787 206.782 128.466 208.897 128.635 209.22C128.535 209.212 125.257 208.477 125.142 208.444C123.575 207.826 121.927 207.441 120.248 207.299C119.264 207.211 119.179 208.203 120.33 208.369C121.951 208.594 123.41 209.532 126.752 210.188C128.228 210.523 129.648 211.072 130.964 211.818C135.405 214.449 135.678 219.734 133.312 224.271C132.152 226.499 127.21 227.316 124.562 227.404ZM142.252 227.384C139.819 232.71 143.03 236.242 141.387 236.375C139.631 236.512 137.87 236.573 136.109 236.558C133.75 236.55 132.391 236.18 132.222 232.932C131.88 226.543 134.643 226.597 141.028 226.92C142.152 226.974 142.425 227.008 142.254 227.384L142.252 227.384ZM136.777 225.677C133.591 225.799 133.275 226.879 134.308 225.384C135.65 223.287 136.374 220.854 136.396 218.364C137.092 218.987 141.369 224.514 142.017 225.216C143.139 226.422 141.795 225.481 136.776 225.674L136.777 225.677ZM177.564 258.989C170.142 259.638 166.338 252.424 150.071 232.785C149.806 231.531 149.449 229.489 148.467 228.518C147.594 227.44 146.401 226.666 145.061 226.308C143.44 225.981 142.876 223.811 136.408 216.281C136.408 216.281 62.9009 129.554 62.3363 128.819C60.5665 126.76 59.1778 124.403 58.2352 121.857C57.8313 120.515 57.525 114.727 60.0739 112.257C59.4691 114.552 59.3912 116.954 59.8458 119.284C60.3005 121.613 61.2761 123.809 62.6996 125.708C65.6064 130.044 71.208 136.274 83.3555 150.916C93.6407 163.316 114.155 185.538 129.657 204.95L164.838 247.782C167.324 250.774 171.583 256.124 175.064 257.226C180.537 258.954 180.69 257.649 181.357 258.061C180.125 258.49 178.855 258.799 177.564 258.986L177.564 258.989ZM149.099 209.292C151.411 210.072 150.427 208.735 154.117 214.07C154.983 215.322 158.891 219.178 158.341 219.63C154.847 222.507 151.444 225.474 150.516 226.413C149.837 227.1 149.724 227.191 149.456 226.889C145.663 222.636 149.305 226.892 138.598 213.624C137.281 211.993 137.697 213.44 141.765 209.133C143.081 207.821 144.483 206.599 145.963 205.474C146.905 204.658 147.63 208.791 149.098 209.288L149.099 209.292ZM127.021 150.857C125.88 148.927 125.377 146.686 125.583 144.453C125.792 142.791 126.45 141.216 127.488 139.9C128.026 139.179 128.715 138.584 129.508 138.157C130.3 137.73 131.176 137.482 132.075 137.429C132.757 137.205 132.54 136.698 132.092 136.561C131.643 136.423 131.069 136.756 130.009 135.186C128.614 133.106 129.945 130.927 131.705 129.136C133.834 126.977 136.405 127.884 135.915 128.311C134.983 129.119 133.181 130.518 132.967 132.333C132.857 133.271 133.667 135.064 134.23 134.663C135.084 134.06 132.155 132.804 135.829 129.656C138.598 127.289 142.524 127.821 145.434 127.793C148.006 127.766 150.815 125.192 150.608 126.338C150.556 127.028 150.349 127.698 150.003 128.297C149.657 128.897 149.182 129.411 148.611 129.803C147.52 130.79 136.89 128.007 136.283 133.15C136.224 133.667 136.756 133.938 137.051 133.351C138.387 130.704 139.332 130.358 151.486 130.999C154.424 131.155 156.255 130.053 157.627 129.924C157.375 130.729 156.983 131.483 156.469 132.151C154.625 134.57 151.504 132.608 150.16 132.571C149.216 132.543 146.873 132.385 146.097 132.844C146.023 132.889 145.966 132.958 145.938 133.04C145.909 133.122 145.909 133.211 145.939 133.292C145.969 133.373 146.027 133.442 146.102 133.485C146.177 133.529 146.264 133.545 146.35 133.53C147.25 133.376 148.165 133.335 149.075 133.406C149.921 133.482 157.576 135.325 157.837 135.439C159.627 136.23 162.07 137.912 162.837 139.65C163.939 142.151 165.766 142.634 166.751 144.306C167.343 145.677 167.833 147.09 168.216 148.533C168.996 150.588 170.123 150.682 172.668 154.641C172.913 155.025 172.863 155.034 172.423 155.224C171.053 155.811 170.768 156.366 170.094 155.972C169.604 155.683 169.074 155.989 168.681 156.157C168.082 156.418 167.843 150.437 166.7 150.229C166.521 150.194 166.336 150.207 166.164 150.268C165.992 150.329 165.84 150.435 165.724 150.575C164.875 151.603 165.246 153.269 165.239 153.667C165.235 153.977 164.584 153.889 164.33 155.17C163.324 160.254 164.006 157.959 162.198 153.151C160.441 148.473 159.886 149.147 159.218 145.852C159.14 145.467 157.994 139.316 156.734 139.659C155.973 139.863 157.386 140.652 157.977 144.293C158.714 148.807 159.524 148.956 161.068 152.769C161.395 153.582 163.218 158.876 162.451 158.435C162.399 158.406 161.217 157.195 160.675 158.602C158.862 163.338 158.158 163.793 158.332 163.286C161.478 154.123 157.641 148.794 156.886 146.785C155.939 144.26 155.721 139.154 152.493 138.416C147.396 137.252 146.033 140.112 139.233 134.525C138.313 133.768 137.634 134.016 137.886 134.425C138.295 135.091 138.772 135.102 138.296 135.357C136.788 136.164 133.213 138.877 132.617 140.44C130.894 144.967 131.035 144.762 132.978 151.292C134.878 157.673 134.246 159.426 138.733 164.405C144.414 170.707 152.342 171.459 139.751 169.116C138.869 168.953 138.574 170.054 139.137 170.902C139.396 171.287 139.769 171.645 139.036 171.702C136.244 171.921 133.7 168.072 132.27 168.976C131.917 169.2 131.644 169.317 131.257 169.028C130.769 168.58 130.359 168.053 130.045 167.47C128.269 164.615 128.489 161.933 129.325 158.836C130.329 155.402 128.389 153.447 127.02 150.853L127.021 150.857ZM183.291 162.175C189.539 174.166 189.909 173.768 189.299 174.229C189.06 174.406 188.913 174.776 188.663 174.846C188.413 174.916 188.105 174.701 187.814 174.632C187.55 174.557 187.273 174.541 187.001 174.585C186.73 174.628 186.472 174.731 186.244 174.885C186.017 175.039 185.826 175.241 185.684 175.476C185.543 175.712 185.455 175.975 185.426 176.248C185.222 177.899 183.683 175.833 182.212 177.201C180.674 178.627 181.618 179.509 180.319 179.419C174.75 179.031 179.363 184.581 174.272 174.237C173.611 173.167 173.057 172.035 172.618 170.856C172.551 170.626 172.302 170.002 171.881 170.135C171.157 170.37 172.303 172.639 174.444 176.806C175.608 179.071 175.206 179.334 177.544 183.866C178.943 186.583 180.422 184.656 181.023 185.935C182.638 189.387 182.369 188.638 182.403 189.069C180.952 188.94 163.701 179.463 164.596 173.369C164.979 170.762 167.296 168.374 168.953 166.333C169.361 165.83 170.426 163.428 171.895 161.291C172.7 160.111 172.345 158.725 171.148 159.146C169.909 159.575 169.602 160.556 170.395 157.952C170.555 157.43 170.582 157.154 171.009 156.959C171.805 156.513 172.646 156.155 173.519 155.89C176.819 155.255 178.638 156.138 179.788 157.453C181.079 158.93 182.251 160.507 183.29 162.171L183.291 162.175ZM194.715 189.2C192.32 191.409 188.548 194.319 178.808 202.569C177.058 204.049 162.342 185.034 158.346 179.059C156.957 176.213 155 173.102 156.316 169.022C156.758 167.89 157.364 166.829 158.114 165.873C159.526 163.845 160.613 161.611 161.339 159.249C161.842 158.728 162.372 159.749 161.485 161.598C159.928 164.826 158.853 166.84 159.975 169.368C160.799 168.71 159.809 166.876 160.776 165.258C161.374 163.978 162.049 162.735 162.797 161.537C164.743 159.202 164.862 156.316 165.122 154.984C165.186 154.661 165.496 154.932 165.59 155.467C165.806 156.875 165.551 158.315 164.865 159.563C163.278 162.309 163.477 162.499 162.838 162.5C162.754 162.491 162.668 162.502 162.59 162.534C162.511 162.565 162.441 162.616 162.387 162.68C162.349 162.749 162.331 162.827 162.334 162.905C162.337 162.983 162.362 163.059 162.406 163.125C162.449 163.19 162.509 163.242 162.58 163.275C162.651 163.309 162.73 163.322 162.808 163.314C163.953 163.456 165.061 163.819 166.068 164.382C166.449 164.578 166.478 164.688 166.352 164.934C166.167 165.315 165.999 165.397 165.65 165.271C165.472 165.232 165.303 165.158 165.153 165.054C164.53 164.453 162.289 164.206 163.879 165.099C165.234 165.859 165.451 165.91 165.036 166.247C163.199 167.386 161.513 168.751 160.016 170.309C159.569 170.837 159.27 171.472 159.149 172.153C159.028 172.833 159.088 173.533 159.325 174.182C159.405 174.271 159.569 174.287 159.698 174.333C159.733 174.222 159.805 174.111 159.795 174.004C159.513 171.016 161.507 170.143 166.889 165.541C167.623 164.908 170.775 158.914 171.34 160.151C171.596 160.711 170.308 162.036 168.884 164.719C166.791 168.668 161.141 171.911 164.942 177.483C170.147 185.12 183.037 190.454 186.65 192.668C187.363 193.108 187.73 192.629 187.549 192.204C187.181 191.338 186.587 191.354 184.404 190.166C184.141 190.023 184.013 189.859 181.08 184.101C180.874 183.695 180.88 183.691 181.268 183.42C185.326 180.634 184.733 181.929 189.327 179.553C191.092 178.642 190.994 179.408 193.09 183.995C194.739 187.615 195.985 188.03 194.715 189.2ZM153.928 140.627C154.414 141.763 154.79 142.943 155.051 144.151C155.136 144.532 155.109 144.583 154.719 144.581C151.86 144.567 150.872 145.205 148.694 145.839C147.906 146.161 147.184 146.627 146.566 147.212C146.41 147.327 146.288 147.481 146.212 147.659C146.137 147.838 146.11 148.033 146.135 148.225C146.211 149.263 145.404 148.334 144.151 149.393C143.477 149.962 143.682 147.11 135.563 150.609C134.5 151.068 134.385 152.039 134.127 151.365C131.24 143.84 131.818 141.329 138.059 136.469C139.895 135.653 139.13 135.865 140.945 137.094C146.692 140.99 152.601 137.527 153.928 140.627ZM152.299 147.438C151.345 150.021 151.453 150.933 150.903 151.016C150.638 151.085 150.361 151.094 150.093 151.041C149.824 150.988 149.571 150.874 149.353 150.71C149.13 150.489 149.223 150.076 149.299 149.739C149.537 148.756 149.855 147.794 150.25 146.863C150.355 146.549 150.37 146.133 150.704 146.071C151.284 145.899 151.883 145.803 152.488 145.786C152.923 145.888 152.671 146.437 152.302 147.436L152.299 147.438ZM138.778 154.689C138.675 155.044 138.663 155.291 138.456 155.235C138.031 155.123 137.462 155.116 137.134 154.478C136.886 153.996 137.346 153.067 137.649 152.251C137.923 151.509 138.189 150.373 139.083 150.225C140.925 149.913 140.277 149.503 138.781 154.687L138.778 154.689ZM141.092 155.922C143.804 154.914 143.893 152.207 144.1 151.229C144.285 150.699 144.667 150.259 145.166 150.001C145.665 149.743 146.245 149.686 146.785 149.843C147.255 149.949 147.574 150.465 148.088 150.923C149.385 152.064 150.94 152.283 153.095 151.482C156.473 150.224 155.218 146.378 156.669 148.891C157.719 150.914 158.349 153.128 158.521 155.4C158.761 159.545 157.523 163.64 155.027 166.957C149.52 175.004 135.856 162.941 135.048 154.919C134.939 153.865 137.11 157.4 141.095 155.92L141.092 155.922ZM151.596 170.593C152.56 170.365 153.478 169.972 154.309 169.433C155.147 168.819 155.453 168.502 155.332 168.972C154.385 172.717 156.036 173.705 153.929 172.231C153.543 171.963 151.853 171.01 151.558 170.751C151.545 170.739 151.536 170.725 151.531 170.709C151.526 170.692 151.526 170.675 151.53 170.659C151.534 170.642 151.543 170.627 151.555 170.615C151.567 170.603 151.582 170.595 151.599 170.591L151.596 170.593ZM177.195 203.423C177.617 203.831 177.608 203.614 173.341 207.123C173.301 207.1 169.188 199.068 165.994 193.209C157.787 178.14 163.202 189.894 177.198 203.421L177.195 203.423ZM166.866 151.473C167.217 153.44 167.39 154.859 167.886 156.82C168.053 157.469 166.244 162.517 165.881 163.226C165.801 163.227 165.72 163.219 165.642 163.202C164.11 162.688 164.09 162.722 164.322 162.318C165.902 159.557 166.657 158.643 166.389 156.399C166.091 154.832 165.923 153.243 165.889 151.648C165.905 151.501 165.961 151.362 166.05 151.244C166.139 151.127 166.258 151.036 166.395 150.981C166.575 150.923 166.811 151.141 166.87 151.471L166.866 151.473ZM169.734 156.715C169.753 156.718 169.771 156.725 169.787 156.736C169.803 156.747 169.817 156.76 169.828 156.777C169.839 156.793 169.846 156.811 169.85 156.83C169.853 156.849 169.853 156.868 169.849 156.887C169.575 158.121 167.854 164.409 166.729 163.767C166.261 163.499 166.71 163.173 167.27 161.593C168.403 158.405 168.558 156.477 169.737 156.713L169.734 156.715ZM189.37 178.301C189.009 178.348 188.053 178.974 187.01 179.42C184.941 180.051 182.976 180.98 181.176 182.18C180.757 182.492 178.575 183.761 178.172 183.034C177.531 181.879 177.278 181.484 177.639 181.177C178.956 180.07 178.887 180.185 179.372 180.212C179.885 180.244 181.952 180.644 182.036 179.121C182.054 178.895 182.121 178.676 182.231 178.479C182.341 178.282 182.493 178.11 182.675 177.976C182.857 177.843 183.066 177.749 183.287 177.703C183.509 177.657 183.738 177.659 183.958 177.709C187.377 178.723 185.499 174.628 187.876 175.619C188.857 176.028 188.988 176.305 189.365 175.638C189.708 175.037 190.059 174.576 190.444 175.213C192.514 178.625 192.628 177.876 189.373 178.299L189.37 178.301ZM132.908 171.209C138.339 176.4 140.515 174.002 139.874 175.229C139.702 175.557 137.292 175.11 134.85 173.736C133.215 172.819 133.321 172.484 130.643 170.986C130.321 170.806 130.301 170.997 129.138 169.904C128.457 169.268 129.124 168.392 130.767 169.473C131.533 169.983 132.25 170.565 132.908 171.209ZM137.065 175.682C139.16 176.334 140.312 176.161 139.75 176.599C138.945 176.674 138.134 176.651 137.336 176.529C133.991 175.784 134.515 176.52 129.759 172.614C129.144 172.095 129.199 171.834 129.248 171.73C129.355 171.508 129.784 171.534 130.009 171.621C132.448 172.56 133.264 174.506 137.068 175.684L137.065 175.682ZM134.88 176.961C139.216 178.18 139.84 176.981 140.258 177.925C140.648 178.802 141.247 178.266 141.027 177.646C140.715 176.325 140.619 174.962 140.744 173.611C140.729 173.02 140.135 173.357 140.114 173.512C139.951 174.52 137.14 173.668 135.974 172.79C135.527 172.454 133.377 170.559 132.911 170.145C132.444 169.731 132.992 169.525 133.237 169.671C134.066 170.174 134.674 170.582 135.155 170.913C136.614 171.917 137.417 172.81 141.301 172.609C141.412 172.604 144.14 173.025 144.183 173.031C146.14 173.333 146.332 173.222 147.364 174.136C148.754 175.366 148.627 175.332 147.776 175.279C146.971 175.231 146.941 175.363 144.886 176.096C144.079 176.382 143.646 176.516 143.722 176.887C144.017 178.292 147.05 174.899 151.338 177.083C152.226 177.534 153.007 176.751 151.821 176.209C147.889 174.4 148.017 172.269 145.226 172.299C143.843 172.086 142.479 171.764 141.148 171.335C140.597 171.206 139.602 170.477 139.816 169.956C140.03 169.434 141.561 170.666 145.923 171.11C148.072 171.33 150.537 171.123 151.926 172.083C153.42 172.839 154.664 174.01 155.509 175.456C173.603 210.727 173.305 207.096 171.505 208.643C160.899 217.744 161.889 216.292 159.531 218.584C159.263 218.846 159.173 218.574 158.731 217.943C158.115 217.051 157.379 216.274 156.696 215.444C152.748 210.643 153.254 210.415 151.274 208.582C148.224 205.761 151.308 202.531 155.336 200.683C157.413 199.728 157.466 199.023 157.704 200.11C158.919 205.614 159.033 210.289 159.719 211.537C161.723 215.209 159.846 197.893 152.058 182.259C149.974 178.071 145.914 180.984 136.898 178.616C135.547 178.302 134.204 177.955 132.869 177.577C132.189 177.376 131.091 177.181 130.92 176.682C130.864 176.51 130.981 176.35 131.166 176.241C131.407 176.103 131.69 176.057 131.963 176.11C132.753 176.253 134.405 176.83 134.883 176.963L134.88 176.961ZM156.502 196.277C157.142 198.377 157.362 198.318 156.787 198.639C150.585 202.087 150.173 201.815 148.857 206.976C148.685 207.655 147.659 205.853 147.376 205.211C147.291 204.931 147.293 204.632 147.382 204.354C147.471 204.075 147.643 203.83 147.874 203.652C148.14 203.549 148.365 203.361 148.513 203.118C148.662 202.875 148.726 202.59 148.697 202.306C148.358 199.439 151.197 201.305 151.589 199.131C151.719 198.424 151.711 197.805 152.959 197.725C156.3 197.514 153.753 195.978 155.5 195.677C156.283 195.546 156.281 195.543 156.505 196.279L156.502 196.277ZM134.76 178.904C135.167 179.056 139.122 180.01 139.978 180.278C141.041 180.607 141.237 180.368 140.543 181.075C138.797 182.736 137.556 184.856 136.962 187.192C136.86 187.806 136.799 188.002 136.17 187.308C135.521 186.688 135.004 185.943 134.65 185.118C134.295 184.293 134.11 183.405 134.106 182.508C134.157 179.39 134.192 178.698 134.766 178.911L134.76 178.904ZM138.684 191.982C137.141 189.041 137.241 186.246 141.345 181.711C142.482 180.455 141.932 180.426 148.413 180.897C151.344 181.111 151.251 182.932 152.641 185.383C152.751 185.574 155.558 192.19 154.614 191.249C149.564 186.222 148.007 184.361 147.561 184.761C146.777 185.455 148.519 186.317 153.256 191.352C154.858 193.053 154.723 193.41 155.54 194.245C156.493 195.216 153.948 194.137 153.861 196.311C153.844 196.777 153.675 196.765 152.786 196.804C152.288 196.834 151.816 197.034 151.448 197.369C151.079 197.704 150.837 198.156 150.76 198.648C150.765 199.443 150.165 199.536 149.363 199.644C148.843 199.787 148.395 200.12 148.108 200.577C147.821 201.035 147.716 201.583 147.813 202.114C147.91 202.888 147.615 202.552 146.807 203.615C146.494 204.025 146.868 204.097 145.986 202.657C144.107 199.59 140.516 195.477 138.684 191.982ZM217.599 171.032C224.325 177.998 230.689 185.305 236.664 192.924C238.133 194.895 243.212 202.076 239.997 207.531C236.967 212.672 232.361 215.486 216.217 229.072C185.814 254.643 182.014 263.146 170.251 251.962C168.975 250.744 150.694 228.299 150.71 228.284C150.526 228.023 150.32 227.857 150.606 227.608C153.449 225.129 165.721 215.099 178.573 204.251C197.161 188.559 217.583 171.025 217.599 171.032ZM216.48 170.447C214.689 172.35 196.992 187.184 196.451 187.674C195.959 188.115 193.258 181.911 192.405 180.383C192.189 179.994 192.39 179.977 193.071 179.403C194.006 178.615 193.128 178.858 188.898 170.358C187.246 167.042 186.933 167.483 188 166.819C190.492 164.993 192.859 163.005 195.087 160.865C196.562 159.525 199.757 157.05 202.46 154.867C203.858 153.74 202.581 153.52 210.536 162.541C217.379 170.299 216.826 170.078 216.48 170.447ZM202.638 152.952C203.042 153.435 203.085 153.229 198.279 157.025C191.637 162.268 194.648 160.562 190.674 163.525C186.44 166.677 187.168 167.396 186.111 165.4C183.437 160.349 182.616 158.602 179.499 155.891C178.511 155.029 177.433 154.824 175.371 154.67C174.416 154.599 174.055 155.316 173.512 154.385C171.25 150.513 170.356 150.868 169.36 148.805C168.918 147.811 168.557 146.783 168.282 145.73C167.219 142.265 165.214 142.29 163.862 139.511C163.069 138.131 162 136.929 160.721 135.98C159.443 135.032 157.983 134.357 156.432 133.998C154.886 133.684 157.494 133.853 158.633 129.928C158.818 129.297 158.869 129.013 158.605 128.853C157.41 128.133 157.385 129.701 152.513 130.16C151.659 130.224 150.801 130.181 149.959 130.032C150.517 129.317 150.978 128.531 151.33 127.695C152.067 125.871 151.24 124.068 150.185 124.99C147.807 127.071 144.318 126.816 142.878 126.795C141.059 126.806 139.248 127.03 137.481 127.464C136.035 127.057 133.458 125.365 129.862 129.626C129.395 130.288 129.019 131.01 128.744 131.772C127.932 133.569 129.19 135.713 129.808 136.385C130.41 137.04 128.532 136.836 126.576 139.367C123.717 143.051 124.193 148.173 126.686 152.114C128.107 154.823 128.991 155.872 128.435 157.967C127.715 159.962 127.51 162.106 127.839 164.202C128.717 168.511 129.708 167.77 128.61 168.356C127.768 168.804 127.874 169.7 128.574 170.314C128.881 170.583 129.093 170.814 128.875 170.957C128.694 171.056 128.55 171.212 128.467 171.401C128.384 171.59 128.367 171.801 128.417 172.001C128.685 173.398 132.266 174.908 131.328 175.307C130.247 175.767 130.095 176.29 130.259 176.98C130.363 177.376 130.704 177.689 132.001 178.167C133.166 178.597 133.483 178.406 133.444 178.882C133.064 183.334 132.798 185.134 136.054 188.392C136.501 188.838 136.86 188.473 136.862 189.273C136.864 193.591 146.782 203.55 145.657 204.584C142.867 207.17 145.301 204.524 137.541 211.791C136.954 212.341 129.697 202.951 128.956 202.076C103.571 171.996 95.3052 163.003 93.0147 160.124C92.0529 159.048 93.645 157.992 94.0288 157.694C104.366 149.65 140.17 118.752 140.191 118.738C140.211 118.723 158.093 104.483 158.993 103.347C159.263 103.044 159.566 102.773 159.897 102.539C160.129 102.353 160.528 102.615 161.199 103.305C164.073 106.301 170.499 114.637 175.959 120.496L202.638 152.952ZM184.685 109.767C183.17 110.251 180.426 107.071 179.282 105.637C177.749 103.605 176.36 101.468 175.125 99.2429C177.405 99.6099 184.258 108.766 184.685 109.765L184.685 109.767Z" fill="#000001"/>
<path d="M165.759 221.407C166.104 222.067 167.7 222.508 167.613 223.158C167.55 223.616 165.675 223.742 165.503 223.932C165.275 224.421 164.923 224.842 164.482 225.153C164.042 225.464 163.528 225.655 162.991 225.707C162.355 225.652 161.748 225.415 161.243 225.025C160.737 224.636 160.354 224.109 160.138 223.509C159.1 220.926 162.384 218.573 164.348 219.594C164.976 220.057 165.465 220.685 165.759 221.407ZM166.741 222.947C166.765 222.765 165.581 222.607 165.078 221.634C164.29 220.11 163.181 220.042 162.571 220.251C162.03 220.393 161.557 220.723 161.235 221.181C160.914 221.639 160.765 222.196 160.815 222.753C160.865 223.31 161.111 223.832 161.509 224.225C161.907 224.619 162.431 224.859 162.989 224.902C164.803 224.87 164.489 223.206 165.511 223.141C165.672 223.131 166.727 223.047 166.741 222.947Z" fill="#000001"/>
<path d="M179.623 243.948C180.24 244.692 180.081 244.798 179.378 245.507C178.015 246.887 177.78 246.935 177.544 246.744C175.878 245.001 176.036 244.535 175.579 244.989C174.497 246.063 174.276 245.481 175.864 247.41C176.223 247.846 176.375 248.018 176.128 248.245C175.575 248.805 174.98 249.321 174.347 249.788C174.018 250.039 173.71 250.12 173.32 249.685C170.336 246.352 170.888 247.706 171.52 242.211C171.583 241.656 171.659 241.558 172.208 241.464C173.078 241.324 175.765 241.213 176.257 241.2C176.594 241.167 176.934 241.22 177.245 241.354C178.209 242.044 179.019 242.928 179.623 243.948ZM178.508 245.052C178.868 244.712 179.069 244.634 178.762 244.251C176.463 241.381 177.269 242.229 173.093 242.341C172.58 242.35 172.472 242.39 172.419 242.95C172.013 247.228 171.549 246.173 173.61 248.613C173.899 248.956 174.062 248.999 174.391 248.697C175.223 247.931 175.352 248.058 174.892 247.519C174.706 247.3 174.276 246.729 173.957 246.348C173.431 245.715 173.653 245.687 174.975 244.52C175.719 243.861 176.063 243.654 176.382 244.048C176.969 244.772 177.412 245.295 177.681 245.589C177.868 245.788 178.119 245.411 178.505 245.046L178.508 245.052Z" fill="#000001"/>
<path d="M168.708 226.303C169.134 226.848 168.714 227.236 168.173 227.594C167.179 228.251 167.626 228.616 166.661 229.268C166.163 229.604 166.394 229.495 165.636 230.444C164.703 230.708 164.576 230.683 164.657 230.916C164.683 230.976 164.697 231.041 164.697 231.107C164.697 231.173 164.683 231.238 164.657 231.298C164.63 231.359 164.592 231.413 164.544 231.458C164.496 231.502 164.439 231.537 164.377 231.559C163.723 231.726 163.009 229.75 164.39 229.662C165.487 229.593 165.031 228.863 165.787 228.531C166.688 228.139 166.248 227.459 167.327 226.814C167.574 226.666 168.316 225.811 168.708 226.303Z" fill="#000001"/>
<path d="M103.164 115.755C108.469 124.433 95.5897 132.371 90.2421 123.858C84.6912 115.02 97.931 107.192 103.164 115.755ZM90.8663 123.141C95.3584 130.758 106.776 123.988 102.405 116.447C97.882 108.642 86.532 115.792 90.8657 123.14L90.8663 123.141Z" fill="#000001"/>
<path d="M107.682 124.566C108.314 124.075 108.756 124.939 108.402 125.318C106.852 126.988 106.648 126.439 105.819 127.97C105.223 129.074 104.42 128.274 104.139 129.146C103.086 132.446 101.566 129.519 101.059 131.04C100.944 131.593 100.783 132.135 100.58 132.661C100.528 132.782 99.1854 133.827 100.254 130.609C101.087 128.106 102.654 131.315 103.338 128.483C103.633 127.259 104.594 128.126 105.016 127.253C105.228 126.794 105.543 126.39 105.936 126.072C106.556 125.616 107.139 125.112 107.682 124.566Z" fill="#000001"/>
<path d="M106.977 135.403C107.442 134.834 108.731 135.202 107.08 136.874C105.042 137.722 106.656 137.263 104.634 138.547C103.618 139.191 103.247 139.017 102.811 139.853C101.823 141.746 101.141 140.225 100.577 141.728C100.077 143.064 98.991 142.428 98.7738 143.269C98.2502 145.301 96.6854 143.759 96.7343 144.851C96.8152 146.727 95.242 145.45 96.0402 143.765C96.1644 143.502 96.8624 143.478 97.158 143.469C97.9245 143.448 97.7965 143.129 98.0376 142.389C98.447 141.139 99.1021 142.39 99.7463 141.174C101.008 138.795 100.85 141.065 102.094 139.04C102.953 137.638 103.368 138.412 104.218 137.476C104.684 136.962 104.778 137.417 105.216 136.659C105.734 135.768 106.074 136.515 106.977 135.403Z" fill="#000001"/>
<path d="M157.175 224.406C157.469 224.357 157.77 224.407 158.032 224.548C158.293 224.689 158.501 224.914 158.621 225.186C159.105 226.574 159.308 228.044 159.218 229.511C159.339 230.351 158.9 230.542 158.065 230.673C156.781 230.861 155.471 230.76 154.231 230.377C153.909 230.257 153.623 230.057 153.401 229.795C153.179 229.533 153.029 229.218 152.963 228.881C152.898 228.544 152.921 228.196 153.029 227.87C153.138 227.544 153.328 227.252 153.582 227.021C153.745 226.83 153.945 226.674 154.172 226.565C154.398 226.457 154.644 226.396 154.895 226.389C155.493 226.291 155.645 226.695 155.637 225.961C155.631 225.756 155.667 225.553 155.742 225.362C155.817 225.172 155.929 224.999 156.073 224.854C156.217 224.708 156.389 224.594 156.578 224.517C156.768 224.44 156.971 224.402 157.175 224.406ZM158.248 227.097C158.048 224.955 156.618 225.476 156.569 225.961C156.463 226.987 156.713 227.751 155.8 227.536C155.086 227.369 154.513 227.177 154.16 227.7C153.403 228.82 154.242 229.645 155.31 229.745C156.094 229.826 156.882 229.867 157.671 229.868C158.52 229.862 158.468 229.462 158.248 227.098L158.248 227.097Z" fill="#000001"/>
<path d="M161.133 232.885C161.78 232.145 162.478 232.774 161.962 233.577C161.457 234.359 160.858 234.145 160.85 234.766C160.861 234.978 160.803 235.187 160.684 235.361C160.565 235.536 160.392 235.667 160.191 235.734C159.99 235.801 159.774 235.801 159.573 235.733C159.373 235.665 159.201 235.533 159.082 235.358C158.933 235.196 158.798 235.021 158.596 234.78C158.334 233.738 158.191 233.56 158.564 233.289C158.85 233.08 159.506 233.053 159.385 233.719C159.277 234.345 159.513 234.419 159.742 234.568C159.885 234.227 159.825 234.442 159.862 233.97C159.928 233.107 160.437 233.689 161.133 232.885Z" fill="#000001"/>
<path d="M85.7448 105.92C85.9066 105.868 86.6797 106.316 86.2692 107.252C85.8788 108.143 85.0786 107.891 84.0464 107.779C83.3951 107.71 85.1332 110.929 82.346 110.131C81.4897 109.888 80.3761 108.929 81.0521 111.417C81.084 111.587 81.0696 111.762 81.0103 111.925C80.9511 112.087 80.8491 112.23 80.7152 112.34C80.5813 112.449 80.4204 112.52 80.2494 112.546C80.0784 112.572 79.9036 112.551 79.7435 112.486C78.2571 111.989 78.0135 111.181 78.4236 113.496C78.4605 113.696 78.4398 113.904 78.3638 114.093C78.2879 114.283 78.1597 114.447 77.9943 114.567C77.8288 114.687 77.6328 114.757 77.4289 114.77C77.225 114.783 77.0217 114.738 76.8423 114.64C76.3642 114.385 76.1183 114.212 75.7782 114.062C75.8528 114.734 75.9957 115.398 76.2047 116.041C76.2327 116.156 76.2254 116.277 76.1838 116.388C76.1421 116.499 76.0681 116.594 75.9713 116.663C75.8745 116.731 75.7593 116.769 75.6409 116.77C75.5225 116.772 75.4062 116.739 75.3072 116.674C75.2285 116.632 72.5768 114.176 72.9774 115.862C73.2648 116.75 73.479 117.659 73.6178 118.581C73.6379 118.79 73.5945 119 73.4933 119.184C73.3922 119.367 73.2379 119.516 73.0508 119.611C72.8637 119.706 72.6523 119.742 72.4443 119.715C72.2363 119.688 72.0414 119.598 71.885 119.458C71.2212 118.961 70.3942 117.806 70.4841 118.656C70.7743 121.418 71.4642 121.259 70.8531 121.704C70.5396 121.932 70.2488 121.401 70.0671 121.114C69.69 120.151 69.5125 119.121 69.5455 118.087C69.517 117.9 69.5491 117.709 69.6373 117.541C69.7255 117.374 69.865 117.239 70.0354 117.157C70.2058 117.074 70.3982 117.049 70.5842 117.084C70.7702 117.119 70.9401 117.212 71.069 117.351C71.8779 118.008 72.6007 118.925 72.5337 118.355C72.3829 117.065 70.7492 113.754 73.3261 114.175C74.2378 114.323 74.6338 114.915 74.5939 114.23C74.5208 112.995 75.2042 112.589 75.9658 112.857C76.5304 113.054 76.4831 113.274 77.2213 113.429C77.3072 112.621 76.5375 110.497 78.3016 110.732C78.7369 110.82 79.1621 110.951 79.5707 111.125C80.1055 111.307 79.706 110.796 79.7552 110.043C79.8427 108.734 80.6061 108.264 81.558 108.573C83.5757 109.221 82.5442 109.158 82.6162 107.331C82.668 106.047 84.0726 106.567 84.6404 106.67C85.4149 106.802 84.8955 106.199 85.7448 105.92Z" fill="#000001"/>
<path d="M105.057 141.401C105.167 141.36 105.287 141.358 105.398 141.394C105.509 141.43 105.604 141.503 105.668 141.601C105.732 141.699 105.761 141.815 105.749 141.931C105.738 142.048 105.688 142.157 105.606 142.24C105.234 142.777 104.751 143.228 104.19 143.563C101.642 144.605 102.91 145.531 100.499 146.159C99.706 146.365 99.8737 146.864 99.4958 147.417C99.4021 147.554 99.2649 147.654 99.1066 147.703C98.9484 147.751 98.7784 147.745 98.6243 147.685C98.4702 147.624 98.3411 147.513 98.258 147.37C98.175 147.227 98.1428 147.06 98.1668 146.896C98.2442 146.103 98.7663 146.925 99.0469 146.102C99.5478 144.645 100.511 145.863 101.677 144.093C101.922 143.576 102.349 143.167 102.877 142.947C104.434 142.472 104.516 141.595 105.057 141.401Z" fill="#000001"/>
<path d="M90.0798 130.076C90.6857 130.006 91.2985 130.125 91.8341 130.417C92.3696 130.709 92.8015 131.16 93.0705 131.708C93.3395 132.255 93.4324 132.872 93.3365 133.475C93.2405 134.077 92.9604 134.635 92.5346 135.072C90.5937 137.065 89.3892 135.36 88.9022 136.151C88.384 136.999 87.7009 137.734 86.8935 138.314C86.0861 138.893 85.1707 139.304 84.2014 139.524C75.925 141.348 71.3263 131.26 76.8768 126.356C77.7562 125.576 78.7983 125.003 79.9272 124.676C81.0562 124.35 82.2436 124.279 83.4034 124.469C84.5632 124.658 85.6661 125.104 86.6321 125.774C87.598 126.443 88.4027 127.319 88.9877 128.338C89.7387 130.068 89.6537 130.114 90.0798 130.076ZM91.5142 134.676C93.4192 133.512 91.6714 129.956 89.4263 131.343C87.3205 132.643 88.792 135.936 91.5142 134.676ZM88.6219 130.12C88.0868 128.441 86.9184 127.036 85.3647 126.204C83.8109 125.372 81.994 125.178 80.2995 125.663C79.3491 125.925 78.4706 126.4 77.7301 127.051C76.9895 127.702 76.4062 128.512 76.024 129.421C75.6418 130.33 75.4707 131.314 75.5234 132.299C75.5762 133.283 75.8515 134.243 76.3286 135.106C78.8245 139 82.7654 138.978 82.6745 138.362C81.8836 133.034 89.1992 132.001 88.6219 130.12ZM85.6379 137.781C86.4724 137.356 88.5057 135.598 87.9401 134.755C87.1977 133.65 87.6926 132.779 86.6739 133.328C83.9221 134.814 81.777 140.309 85.6379 137.781Z" fill="#000001"/>
<path d="M90.2223 132.087C90.715 132.484 91.0814 131.591 91.4462 132.181C91.8403 132.925 90.8857 132.856 91.3577 133.297C91.53 133.457 91.5731 133.953 91.3572 134.068C90.5894 134.474 90.8085 133.459 89.9772 134.085C89.373 134.542 88.9605 133.936 89.2961 133.436C89.5459 133.063 89.8107 133.088 89.585 132.697C89.1932 132.018 89.7808 131.729 90.2223 132.087Z" fill="#000001"/>
<path d="M92.6817 137.279C93.2003 136.719 94.0759 137.202 93.5151 137.994C92.6621 139.202 93.2877 138.555 91.0739 140.37C90.42 140.527 90.2653 140.356 89.9713 140.928C89.0149 142.793 88.1528 141.23 87.9153 142.123C87.6249 143.217 87.3536 143.464 86.9176 143.465C85.6169 143.472 85.9508 143.547 85.8321 144.522C85.7423 145.246 84.9638 145.133 84.9609 144.483C84.9452 140.88 86.5449 143.569 86.981 141.782C87.2069 140.854 87.2822 140.627 88.3162 140.749C89.4603 140.883 88.9701 139.288 90.3737 139.395C91.0072 139.443 92.6639 137.298 92.6817 137.279Z" fill="#000001"/>
<path d="M78.394 132.648C76.2509 128.644 82.0873 125.42 84.4478 129.548C86.7451 133.567 80.6542 136.873 78.394 132.648ZM83.5703 129.913C81.9583 127.121 77.6362 129.372 79.2272 132.202C79.373 132.494 79.5759 132.755 79.8239 132.969C80.072 133.182 80.3601 133.343 80.6715 133.444C80.9829 133.544 81.3112 133.581 81.6371 133.553C81.9631 133.525 82.2801 133.432 82.5695 133.279C82.8589 133.127 83.115 132.918 83.3226 132.665C83.5302 132.412 83.6851 132.12 83.7784 131.807C83.8716 131.493 83.9012 131.164 83.8655 130.839C83.8298 130.514 83.7294 130.199 83.5703 129.913Z" fill="#000001"/>
<path d="M127.015 210.992C128.257 211.106 130.021 211.786 129.815 213.205C129.521 215.222 128.41 215.414 127.497 219.422C127.155 220.908 127.793 221.903 127.447 223.771C127.314 224.421 126.928 224.993 126.375 225.361C125.822 225.729 125.146 225.863 124.494 225.735C122.999 225.549 115.875 223.221 114.479 220.859C113.135 218.583 113.904 216.365 114.996 213.687C117.045 208.701 121.637 210.503 127.015 210.992ZM127.919 214.486C128.717 212.809 128.616 212.616 127.906 212.443C126.223 212.1 124.519 211.867 122.806 211.746C119.422 211.729 117.11 211.168 115.893 214.878C113.941 220.799 115.338 221.317 122.902 224.087C124.661 224.731 126.257 224.893 126.287 222.991C126.33 220.388 125.213 220.165 127.919 214.486Z" fill="#000001"/>
<path d="M89.777 146.402C94.8024 143.698 98.717 151.18 93.8999 153.699C89.1629 156.57 84.6209 149.177 89.777 146.402ZM93.0473 152.979C95.7189 151.498 95.5264 148.578 93.5909 147.44C93.1309 147.104 92.5903 146.896 92.0239 146.836C91.4575 146.777 90.8855 146.868 90.3657 147.101C89.846 147.334 89.3971 147.7 89.0644 148.162C88.7318 148.625 88.5273 149.167 88.4717 149.733C88.4161 150.3 88.5113 150.872 88.7476 151.39C88.984 151.908 89.3532 152.354 89.8178 152.684C90.2823 153.013 90.8257 153.214 91.3928 153.266C91.96 153.318 92.5308 153.219 93.0473 152.979Z" fill="#000001"/>
<path d="M66.2671 116.786C68.4999 118.915 70.0425 121.666 70.6953 124.682C70.7255 125.138 70.4632 126.016 69.8663 125.78C68.855 125.388 71.0231 124.024 66.0033 117.936C65.5983 117.445 65.4041 119.874 65.5475 120.698C65.7033 121.61 66.4531 121.959 66.1652 122.309C66.0821 122.411 65.9644 122.48 65.8342 122.503C65.7039 122.525 65.5699 122.5 65.457 122.431C63.7519 121.196 64.4128 115.206 66.2671 116.786Z" fill="#000001"/>
<path d="M184.685 109.766C184.259 108.766 177.458 98.9829 174.884 99.0113C174.953 99.3577 179.13 106.537 182.053 109.156C182.383 109.505 182.809 109.749 183.277 109.858C183.745 109.966 184.235 109.934 184.685 109.766Z" fill="#FFE8E1"/>
</g>
<defs>
<clipPath id="clip0_96_825">
<rect width="248" height="248" fill="white" transform="translate(0 124) rotate(-30)"/>
</clipPath>
</defs>
</svg>
