<svg width="280" height="40" viewBox="0 0 280 40" fill="none" xmlns="http://www.w3.org/2000/svg">
<rect width="280" height="40" fill="#AA6C39"/>
<path d="M18.1091 22.064H20.5091L21.1811 18.584H18.3971L18.8291 16.472H21.6131L22.5491 11.648H24.7811L23.8451 16.472H27.5171L28.4531 11.648H30.7091L29.7731 16.472H32.2451L31.8371 18.584H29.3411L28.6691 22.064H31.3571L30.9491 24.176H28.2371L27.3011 29H25.0691L26.0051 24.176H22.3091L21.3731 29H19.1411L20.0771 24.176H17.6771L18.1091 22.064ZM22.7411 22.064H26.4131L27.1091 18.584H23.4131L22.7411 22.064ZM37.7 11.648V29H35.348V11.648H37.7ZM44.0985 29H41.7465V11.648H44.0985L52.9785 25.064V11.648H55.3305V29H52.9785L44.0985 15.584V29ZM58.176 16.328C58.176 13.352 60.576 11.336 64.152 11.336C67.464 11.336 69.6 13.184 69.792 16.184H67.416C67.296 14.456 66.072 13.448 64.128 13.448C61.944 13.448 60.528 14.552 60.528 16.256C60.528 17.648 61.32 18.488 62.952 18.872L65.808 19.544C68.64 20.192 70.08 21.728 70.08 24.176C70.08 27.296 67.656 29.288 63.96 29.288C60.432 29.288 58.08 27.44 57.936 24.464H60.336C60.384 26.12 61.776 27.176 63.96 27.176C66.264 27.176 67.728 26.096 67.728 24.368C67.728 23 66.984 22.136 65.328 21.752L62.472 21.104C59.64 20.456 58.176 18.824 58.176 16.328ZM79.7795 22.808H75.3875V29H73.0355V11.648H79.7795C83.1875 11.648 85.3715 13.88 85.3715 17.216C85.3715 20.456 83.1635 22.808 79.7795 22.808ZM79.3715 13.76H75.3875V20.696H79.2755C81.6035 20.696 82.8995 19.328 82.8995 17.192C82.8995 15.008 81.5795 13.76 79.3715 13.76ZM90.3875 11.648V29H88.0355V11.648H90.3875ZM96.786 29H94.434V11.648H100.986C104.706 11.648 106.914 13.616 106.914 16.856C106.914 19.256 105.714 20.984 103.554 21.68L107.082 29H104.466L101.226 22.136H96.786V29ZM96.786 13.76V20.048H101.01C103.194 20.048 104.442 18.872 104.442 16.88C104.442 14.864 103.146 13.76 100.986 13.76H96.786ZM120.721 29H110.137V11.648H120.721V13.808H112.489V19.232H119.905V21.32H112.489V26.816H120.721V29ZM126.481 11.648V29H124.129V11.648H126.481ZM132.88 29H130.528V11.648H132.88L141.76 25.064V11.648H144.112V29H141.76L132.88 15.584V29ZM155.353 29.264C150.409 29.264 147.121 25.712 147.121 20.336C147.121 14.984 150.505 11.36 155.473 11.36C159.385 11.36 162.385 13.688 163.033 17.24H160.513C159.865 14.984 157.921 13.616 155.401 13.616C151.897 13.616 149.593 16.256 149.593 20.312C149.593 24.368 151.897 27.008 155.401 27.008C157.945 27.008 159.961 25.64 160.609 23.504H163.105C162.361 26.96 159.265 29.264 155.353 29.264ZM168.341 11.648V26.816H175.973V29H165.989V11.648H168.341ZM177.681 22.832V11.648H180.033V22.688C180.033 25.472 181.569 27.008 184.329 27.008C187.065 27.008 188.577 25.448 188.577 22.688V11.648H190.953V22.832C190.953 26.816 188.409 29.288 184.329 29.288C180.225 29.288 177.681 26.84 177.681 22.832ZM193.856 16.328C193.856 13.352 196.256 11.336 199.832 11.336C203.144 11.336 205.28 13.184 205.472 16.184H203.096C202.976 14.456 201.752 13.448 199.808 13.448C197.624 13.448 196.208 14.552 196.208 16.256C196.208 17.648 197 18.488 198.632 18.872L201.488 19.544C204.32 20.192 205.76 21.728 205.76 24.176C205.76 27.296 203.336 29.288 199.64 29.288C196.112 29.288 193.76 27.44 193.616 24.464H196.016C196.064 26.12 197.456 27.176 199.64 27.176C201.944 27.176 203.408 26.096 203.408 24.368C203.408 23 202.664 22.136 201.008 21.752L198.152 21.104C195.32 20.456 193.856 18.824 193.856 16.328ZM211.067 11.648V29H208.715V11.648H211.067ZM230.762 20.312C230.762 25.592 227.306 29.288 222.386 29.288C217.49 29.288 214.082 25.592 214.082 20.312C214.082 15.056 217.514 11.336 222.41 11.336C227.33 11.336 230.762 15.032 230.762 20.312ZM228.29 20.312C228.29 16.28 225.938 13.616 222.41 13.616C218.882 13.616 216.554 16.28 216.554 20.312C216.554 24.344 218.882 27.032 222.41 27.032C225.938 27.032 228.29 24.32 228.29 20.312ZM236.122 29H233.77V11.648H236.122L245.002 25.064V11.648H247.354V29H245.002L236.122 15.584V29Z" fill="white"/>
</svg>
