<svg width="183" height="24" viewBox="0 0 183 24" fill="none" xmlns="http://www.w3.org/2000/svg">
<path d="M9.456 2.568C5.712 2.568 3.456 5.328 3.456 9.432C3.456 13.632 5.904 16.056 9.48 16.056C12.432 16.056 14.808 14.544 14.808 11.04V10.536H9V8.448H17.016V18.024H15.048L14.88 15.672C13.944 17.184 11.832 18.288 9.288 18.288C4.368 18.288 0.984 14.736 0.984 9.384C0.984 4.104 4.392 0.36 9.504 0.36C13.296 0.36 16.248 2.544 16.824 5.88H14.328C13.68 3.672 11.76 2.568 9.456 2.568ZM28.0956 6.264H30.3276V18H28.3116L28.0716 16.224C27.3996 17.448 25.8396 18.288 24.1116 18.288C21.3756 18.288 19.8396 16.44 19.8396 13.56V6.264H22.0956V12.816C22.0956 15.336 23.1756 16.296 24.9036 16.296C26.9676 16.296 28.0956 14.976 28.0956 12.456V6.264ZM34.7048 3.48C33.8888 3.48 33.2168 2.808 33.2168 1.992C33.2168 1.152 33.8888 0.503999 34.7048 0.503999C35.5208 0.503999 36.1928 1.152 36.1928 1.992C36.1928 2.808 35.5208 3.48 34.7048 3.48ZM33.6008 18V6.264H35.8568V18H33.6008ZM41.388 18H39.132V6.264H41.172L41.412 8.064C42.156 6.72 43.644 5.928 45.3 5.928C48.396 5.928 49.812 7.824 49.812 10.824V18H47.556V11.328C47.556 8.952 46.452 7.992 44.724 7.992C42.612 7.992 41.388 9.504 41.388 11.784V18ZM55.1927 18H52.9367V6.264H54.9767L55.2167 8.064C55.9607 6.72 57.4487 5.928 59.1047 5.928C62.2007 5.928 63.6167 7.824 63.6167 10.824V18H61.3607V11.328C61.3607 8.952 60.2567 7.992 58.5287 7.992C56.4167 7.992 55.1927 9.504 55.1927 11.784V18ZM71.8054 18.288C68.3494 18.288 65.9734 15.792 65.9734 12.144C65.9734 8.472 68.3014 5.928 71.7094 5.928C75.0454 5.928 77.2294 8.232 77.2294 11.712V12.552L68.1574 12.576C68.3254 15.048 69.6214 16.416 71.8534 16.416C73.6054 16.416 74.7574 15.696 75.1414 14.352H77.2534C76.6774 16.872 74.7094 18.288 71.8054 18.288ZM71.7094 7.824C69.7414 7.824 68.4934 9 68.2054 11.064H74.9734C74.9734 9.12 73.7014 7.824 71.7094 7.824ZM78.7892 14.592H80.9492C80.9492 15.792 81.8612 16.512 83.3492 16.512C84.9332 16.512 85.8452 15.864 85.8452 14.784C85.8452 13.992 85.4612 13.512 84.2372 13.2L82.1732 12.72C80.0852 12.216 79.1012 11.184 79.1012 9.456C79.1012 7.296 80.9252 5.928 83.5172 5.928C86.0852 5.928 87.7652 7.368 87.8132 9.6H85.6532C85.6052 8.424 84.8132 7.68 83.4452 7.68C82.0292 7.68 81.2372 8.304 81.2372 9.384C81.2372 10.176 81.8132 10.704 82.9652 10.992L85.0292 11.496C87.0212 11.976 88.0052 12.888 88.0052 14.64C88.0052 16.872 86.0852 18.288 83.3012 18.288C80.5412 18.288 78.7892 16.824 78.7892 14.592ZM89.547 14.592H91.707C91.707 15.792 92.619 16.512 94.107 16.512C95.691 16.512 96.603 15.864 96.603 14.784C96.603 13.992 96.219 13.512 94.995 13.2L92.931 12.72C90.843 12.216 89.859 11.184 89.859 9.456C89.859 7.296 91.683 5.928 94.275 5.928C96.843 5.928 98.523 7.368 98.571 9.6H96.411C96.363 8.424 95.571 7.68 94.203 7.68C92.787 7.68 91.995 8.304 91.995 9.384C91.995 10.176 92.571 10.704 93.723 10.992L95.787 11.496C97.779 11.976 98.763 12.888 98.763 14.64C98.763 16.872 96.843 18.288 94.059 18.288C91.299 18.288 89.547 16.824 89.547 14.592ZM110.563 18H108.211V0.647999H110.563L119.443 14.064V0.647999H121.795V18H119.443L110.563 4.584V18ZM126.556 3.48C125.74 3.48 125.068 2.808 125.068 1.992C125.068 1.152 125.74 0.503999 126.556 0.503999C127.372 0.503999 128.044 1.152 128.044 1.992C128.044 2.808 127.372 3.48 126.556 3.48ZM125.452 18V6.264H127.708V18H125.452ZM130.24 11.832C130.24 8.52 132.376 5.928 135.784 5.928C137.68 5.928 139.144 6.792 139.888 8.256L140.056 6.264H142.072V17.52C142.072 21.216 139.792 23.568 136.192 23.568C133 23.568 130.816 21.768 130.384 18.792H132.64C132.928 20.52 134.224 21.528 136.192 21.528C138.4 21.528 139.84 20.088 139.84 17.856V15.504C139.072 16.872 137.536 17.688 135.688 17.688C132.352 17.688 130.24 15.12 130.24 11.832ZM132.496 11.784C132.496 13.992 133.864 15.72 136.072 15.72C138.352 15.72 139.744 14.088 139.744 11.784C139.744 9.528 138.4 7.896 136.096 7.896C133.84 7.896 132.496 9.624 132.496 11.784ZM150.391 18.288C146.935 18.288 144.559 15.792 144.559 12.144C144.559 8.472 146.887 5.928 150.295 5.928C153.631 5.928 155.815 8.232 155.815 11.712V12.552L146.743 12.576C146.911 15.048 148.207 16.416 150.439 16.416C152.191 16.416 153.343 15.696 153.727 14.352H155.839C155.263 16.872 153.295 18.288 150.391 18.288ZM150.295 7.824C148.327 7.824 147.079 9 146.791 11.064H153.559C153.559 9.12 152.287 7.824 150.295 7.824ZM165.055 6.168V8.232H164.047C161.911 8.232 160.591 9.528 160.591 11.784V18H158.335V6.288H160.447L160.591 8.064C161.071 6.84 162.247 6.024 163.855 6.024C164.263 6.024 164.599 6.072 165.055 6.168ZM168.275 3.48C167.459 3.48 166.787 2.808 166.787 1.992C166.787 1.152 167.459 0.503999 168.275 0.503999C169.091 0.503999 169.763 1.152 169.763 1.992C169.763 2.808 169.091 3.48 168.275 3.48ZM167.171 18V6.264H169.427V18H167.171ZM176.134 18.288C173.614 18.288 172.126 16.872 172.126 14.736C172.126 12.576 173.734 11.232 176.494 11.016L180.19 10.728V10.392C180.19 8.424 179.014 7.728 177.43 7.728C175.534 7.728 174.454 8.568 174.454 9.984H172.486C172.486 7.536 174.502 5.928 177.526 5.928C180.43 5.928 182.398 7.464 182.398 10.632V18H180.478L180.238 16.104C179.638 17.448 178.03 18.288 176.134 18.288ZM176.782 16.536C178.918 16.536 180.214 15.144 180.214 12.936V12.312L177.214 12.552C175.222 12.744 174.406 13.512 174.406 14.664C174.406 15.912 175.318 16.536 176.782 16.536Z" fill="white"/>
</svg>
